<?xml version="1.0" encoding="UTF-8" standalone="no"?>
<!DOCTYPE svg PUBLIC "-//W3C//DTD SVG 1.1//EN"
 "http://www.w3.org/Graphics/SVG/1.1/DTD/svg11.dtd">
<!-- Generated by graphviz version 10.0.1 (0)
 -->
<!-- Title: G Pages: 1 -->
<svg width="791px" height="858px"
 viewBox="0.00 0.00 791.00 858.13" xmlns="http://www.w3.org/2000/svg" xmlns:xlink="http://www.w3.org/1999/xlink">
<g id="graph0" class="graph" transform="scale(1 1) rotate(0) translate(4 854.13)">
<title>G</title>
<text text-anchor="middle" x="391.5" y="-7.95" font-family="Times,serif" font-size="14.00">Example</text>
<g id="clust1" class="cluster">
<title>imsic00</title>
<polygon fill="#f8cecc" stroke="#b85450" points="8,-133.19 8,-312.69 188,-312.69 188,-133.19 8,-133.19"/>
<text text-anchor="middle" x="98" y="-295.39" font-family="Times,serif" font-size="14.00">imsic00</text>
<text text-anchor="middle" x="98" y="-278.14" font-family="Times,serif" font-size="14.00">TLIMSIC</text>
</g>
<g id="clust2" class="cluster">
<title>imsic01</title>
<polygon fill="#f8cecc" stroke="#b85450" points="204,-133.19 204,-312.69 384,-312.69 384,-133.19 204,-133.19"/>
<text text-anchor="middle" x="294" y="-295.39" font-family="Times,serif" font-size="14.00">imsic01</text>
<text text-anchor="middle" x="294" y="-278.14" font-family="Times,serif" font-size="14.00">TLIMSIC</text>
</g>
<g id="clust3" class="cluster">
<title>imsic10</title>
<polygon fill="#f8cecc" stroke="#b85450" points="399,-133.19 399,-312.69 579,-312.69 579,-133.19 399,-133.19"/>
<text text-anchor="middle" x="489" y="-295.39" font-family="Times,serif" font-size="14.00">imsic10</text>
<text text-anchor="middle" x="489" y="-278.14" font-family="Times,serif" font-size="14.00">TLIMSIC</text>
</g>
<g id="clust4" class="cluster">
<title>imsic11</title>
<polygon fill="#f8cecc" stroke="#b85450" points="595,-133.19 595,-312.69 775,-312.69 775,-133.19 595,-133.19"/>
<text text-anchor="middle" x="685" y="-295.39" font-family="Times,serif" font-size="14.00">imsic11</text>
<text text-anchor="middle" x="685" y="-278.14" font-family="Times,serif" font-size="14.00">TLIMSIC</text>
</g>
<g id="clust5" class="cluster">
<title>aplic</title>
<polygon fill="#f8cecc" stroke="#b85450" points="379,-504.19 379,-683.69 619,-683.69 619,-504.19 379,-504.19"/>
<text text-anchor="middle" x="499" y="-666.39" font-family="Times,serif" font-size="14.00">aplic</text>
<text text-anchor="middle" x="499" y="-649.14" font-family="Times,serif" font-size="14.00">TLAPLIC</text>
</g>
<!-- toAIA -->
<g id="node1" class="node">
<title>toAIA</title>
<polygon fill="none" stroke="black" points="489.12,-812.69 374.88,-812.69 374.88,-770.19 489.12,-770.19 489.12,-812.69"/>
<text text-anchor="middle" x="432" y="-795.39" font-family="Times,serif" font-size="14.00">toAIA</text>
<text text-anchor="middle" x="432" y="-778.14" font-family="Times,serif" font-size="14.00">TLClientNode</text>
</g>
<!-- toAIA_xbar -->
<g id="node2" class="node">
<title>toAIA_xbar</title>
<polygon fill="none" stroke="black" points="539,-734.19 179,-734.19 179,-691.69 539,-691.69 539,-734.19"/>
<text text-anchor="middle" x="359" y="-716.89" font-family="Times,serif" font-size="14.00">toAIA_xbar</text>
<text text-anchor="middle" x="359" y="-699.64" font-family="Times,serif" font-size="14.00">TLXbar</text>
</g>
<!-- toAIA&#45;&gt;toAIA_xbar -->
<g id="edge1" class="edge">
<title>toAIA&#45;&gt;toAIA_xbar</title>
<path fill="none" stroke="black" d="M432,-769.99C432,-769.99 432,-746.15 432,-746.15"/>
<polygon fill="black" stroke="black" points="435.5,-746.15 432,-736.15 428.5,-746.15 435.5,-746.15"/>
</g>
<!-- imsics_fromMem_xbar -->
<g id="node3" class="node">
<title>imsics_fromMem_xbar</title>
<polygon fill="none" stroke="black" points="754,-476.19 34,-476.19 34,-433.69 754,-433.69 754,-476.19"/>
<text text-anchor="middle" x="394" y="-458.89" font-family="Times,serif" font-size="14.00">imsics_fromMem_xbar</text>
<text text-anchor="middle" x="394" y="-441.64" font-family="Times,serif" font-size="14.00">TLXbar</text>
</g>
<!-- toAIA_xbar&#45;&gt;imsics_fromMem_xbar -->
<g id="edge2" class="edge">
<title>toAIA_xbar&#45;&gt;imsics_fromMem_xbar</title>
<path fill="none" stroke="black" d="M477.81,-691.39C477.81,-691.39 477.81,-488.13 477.81,-488.13"/>
<polygon fill="black" stroke="black" points="481.31,-488.13 477.81,-478.13 474.31,-488.13 481.31,-488.13"/>
</g>
<!-- aplic_fromCPU -->
<g id="node28" class="node">
<title>aplic_fromCPU</title>
<polygon fill="none" stroke="black" points="468.62,-633.19 387.38,-633.19 387.38,-590.69 468.62,-590.69 468.62,-633.19"/>
<text text-anchor="middle" x="428" y="-615.89" font-family="Times,serif" font-size="14.00">fromCPU</text>
<text text-anchor="middle" x="428" y="-598.64" font-family="Times,serif" font-size="14.00">TLXbar</text>
</g>
<!-- toAIA_xbar&#45;&gt;aplic_fromCPU -->
<g id="edge29" class="edge">
<title>toAIA_xbar&#45;&gt;aplic_fromCPU</title>
<path fill="none" stroke="black" d="M428,-691.52C428,-691.52 428,-645.19 428,-645.19"/>
<polygon fill="black" stroke="black" points="431.5,-645.19 428,-635.19 424.5,-645.19 431.5,-645.19"/>
</g>
<!-- map00 -->
<g id="node7" class="node">
<title>map00</title>
<polygon fill="none" stroke="black" points="201,-397.69 35,-397.69 35,-320.69 201,-320.69 201,-397.69"/>
<text text-anchor="middle" x="118" y="-380.39" font-family="Times,serif" font-size="14.00">[mAddr00,sgAddr00]</text>
<text text-anchor="middle" x="118" y="-363.14" font-family="Times,serif" font-size="14.00">map00</text>
<text text-anchor="middle" x="118" y="-345.89" font-family="Times,serif" font-size="14.00">TLMap</text>
<text text-anchor="middle" x="118" y="-328.64" font-family="Times,serif" font-size="14.00">[0x0,0x10000]</text>
</g>
<!-- imsics_fromMem_xbar&#45;&gt;map00 -->
<g id="edge5" class="edge">
<title>imsics_fromMem_xbar&#45;&gt;map00</title>
<path fill="none" stroke="black" d="M118,-433.21C118,-433.21 118,-409.65 118,-409.65"/>
<polygon fill="black" stroke="black" points="121.5,-409.65 118,-399.65 114.5,-409.65 121.5,-409.65"/>
</g>
<!-- map01 -->
<g id="node11" class="node">
<title>map01</title>
<polygon fill="none" stroke="black" points="385,-397.69 219,-397.69 219,-320.69 385,-320.69 385,-397.69"/>
<text text-anchor="middle" x="302" y="-380.39" font-family="Times,serif" font-size="14.00">[mAddr01,sgAddr01]</text>
<text text-anchor="middle" x="302" y="-363.14" font-family="Times,serif" font-size="14.00">map11</text>
<text text-anchor="middle" x="302" y="-345.89" font-family="Times,serif" font-size="14.00">TLMap</text>
<text text-anchor="middle" x="302" y="-328.64" font-family="Times,serif" font-size="14.00">[0x0,0x10000]</text>
</g>
<!-- imsics_fromMem_xbar&#45;&gt;map01 -->
<g id="edge9" class="edge">
<title>imsics_fromMem_xbar&#45;&gt;map01</title>
<path fill="none" stroke="black" d="M302,-433.21C302,-433.21 302,-409.65 302,-409.65"/>
<polygon fill="black" stroke="black" points="305.5,-409.65 302,-399.65 298.5,-409.65 305.5,-409.65"/>
</g>
<!-- map10 -->
<g id="node15" class="node">
<title>map10</title>
<polygon fill="none" stroke="black" points="569,-397.69 403,-397.69 403,-320.69 569,-320.69 569,-397.69"/>
<text text-anchor="middle" x="486" y="-380.39" font-family="Times,serif" font-size="14.00">[mAddr10,sgAddr10]</text>
<text text-anchor="middle" x="486" y="-363.14" font-family="Times,serif" font-size="14.00">map00</text>
<text text-anchor="middle" x="486" y="-345.89" font-family="Times,serif" font-size="14.00">TLMap</text>
<text text-anchor="middle" x="486" y="-328.64" font-family="Times,serif" font-size="14.00">[0x0,0x10000]</text>
</g>
<!-- imsics_fromMem_xbar&#45;&gt;map10 -->
<g id="edge13" class="edge">
<title>imsics_fromMem_xbar&#45;&gt;map10</title>
<path fill="none" stroke="black" d="M486,-433.21C486,-433.21 486,-409.65 486,-409.65"/>
<polygon fill="black" stroke="black" points="489.5,-409.65 486,-399.65 482.5,-409.65 489.5,-409.65"/>
</g>
<!-- map11 -->
<g id="node19" class="node">
<title>map11</title>
<polygon fill="none" stroke="black" points="753,-397.69 587,-397.69 587,-320.69 753,-320.69 753,-397.69"/>
<text text-anchor="middle" x="670" y="-380.39" font-family="Times,serif" font-size="14.00">[mAddr11,sgAddr11]</text>
<text text-anchor="middle" x="670" y="-363.14" font-family="Times,serif" font-size="14.00">map11</text>
<text text-anchor="middle" x="670" y="-345.89" font-family="Times,serif" font-size="14.00">TLMap</text>
<text text-anchor="middle" x="670" y="-328.64" font-family="Times,serif" font-size="14.00">[0x0,0x10000]</text>
</g>
<!-- imsics_fromMem_xbar&#45;&gt;map11 -->
<g id="edge17" class="edge">
<title>imsics_fromMem_xbar&#45;&gt;map11</title>
<path fill="none" stroke="black" d="M670,-433.21C670,-433.21 670,-409.65 670,-409.65"/>
<polygon fill="black" stroke="black" points="673.5,-409.65 670,-399.65 666.5,-409.65 673.5,-409.65"/>
</g>
<!-- imsic00_fromMem -->
<g id="node4" class="node">
<title>imsic00_fromMem</title>
<polygon fill="none" stroke="black" points="160.88,-262.19 75.12,-262.19 75.12,-219.69 160.88,-219.69 160.88,-262.19"/>
<text text-anchor="middle" x="118" y="-244.89" font-family="Times,serif" font-size="14.00">fromMem</text>
<text text-anchor="middle" x="118" y="-227.64" font-family="Times,serif" font-size="14.00">TLXbar</text>
</g>
<!-- imsic00_fromCSR -->
<g id="node5" class="node">
<title>imsic00_fromCSR</title>
<polygon fill="none" stroke="black" points="96.25,-183.69 15.75,-183.69 15.75,-141.19 96.25,-141.19 96.25,-183.69"/>
<text text-anchor="middle" x="56" y="-166.39" font-family="Times,serif" font-size="14.00">fromCSR</text>
<text text-anchor="middle" x="56" y="-149.14" font-family="Times,serif" font-size="14.00">Bundle</text>
</g>
<!-- imsic00_fromMem&#45;&gt;imsic00_fromCSR -->
<g id="edge3" class="edge">
<title>imsic00_fromMem&#45;&gt;imsic00_fromCSR</title>
<path fill="none" stroke="none" d="M85.69,-219.49C85.69,-219.49 85.69,-195.65 85.69,-195.65"/>
<polygon fill="none" stroke="none" points="89.19,-195.65 85.69,-185.65 82.19,-195.65 89.19,-195.65"/>
</g>
<!-- imsic00_toCSR -->
<g id="node6" class="node">
<title>imsic00_toCSR</title>
<polygon fill="none" stroke="black" points="180.12,-183.69 113.88,-183.69 113.88,-141.19 180.12,-141.19 180.12,-183.69"/>
<text text-anchor="middle" x="147" y="-166.39" font-family="Times,serif" font-size="14.00">toCSR</text>
<text text-anchor="middle" x="147" y="-149.14" font-family="Times,serif" font-size="14.00">Bundle</text>
</g>
<!-- imsic00_fromMem&#45;&gt;imsic00_toCSR -->
<g id="edge4" class="edge">
<title>imsic00_fromMem&#45;&gt;imsic00_toCSR</title>
<path fill="none" stroke="none" d="M137.38,-219.49C137.38,-219.49 137.38,-195.65 137.38,-195.65"/>
<polygon fill="none" stroke="none" points="140.88,-195.65 137.38,-185.65 133.88,-195.65 140.88,-195.65"/>
</g>
<!-- fromCSR0 -->
<g id="node21" class="node">
<title>fromCSR0</title>
<polygon fill="none" stroke="black" points="96.75,-105.19 7.25,-105.19 7.25,-62.69 96.75,-62.69 96.75,-105.19"/>
<text text-anchor="middle" x="52" y="-87.89" font-family="Times,serif" font-size="14.00">fromCSR0</text>
<text text-anchor="middle" x="52" y="-70.64" font-family="Times,serif" font-size="14.00">Bundle</text>
</g>
<!-- imsic00_fromCSR&#45;&gt;fromCSR0 -->
<g id="edge20" class="edge">
<title>imsic00_fromCSR&#45;&gt;fromCSR0</title>
<path fill="none" stroke="black" d="M56,-129.48C56,-129.48 56,-105.64 56,-105.64"/>
<polygon fill="black" stroke="black" points="52.5,-129.48 56,-139.48 59.5,-129.48 52.5,-129.48"/>
</g>
<!-- toCSR0 -->
<g id="node20" class="node">
<title>toCSR0</title>
<polygon fill="none" stroke="black" points="185,-105.19 115,-105.19 115,-62.69 185,-62.69 185,-105.19"/>
<text text-anchor="middle" x="150" y="-87.89" font-family="Times,serif" font-size="14.00">toCSR0</text>
<text text-anchor="middle" x="150" y="-70.64" font-family="Times,serif" font-size="14.00">Bundle</text>
</g>
<!-- imsic00_toCSR&#45;&gt;toCSR0 -->
<g id="edge19" class="edge">
<title>imsic00_toCSR&#45;&gt;toCSR0</title>
<path fill="none" stroke="black" d="M147.56,-140.99C147.56,-140.99 147.56,-117.15 147.56,-117.15"/>
<polygon fill="black" stroke="black" points="151.06,-117.15 147.56,-107.15 144.06,-117.15 151.06,-117.15"/>
</g>
<!-- map00&#45;&gt;imsic00_fromMem -->
<g id="edge6" class="edge">
<title>map00&#45;&gt;imsic00_fromMem</title>
<path fill="none" stroke="black" d="M118,-320.47C118,-320.47 118,-274 118,-274"/>
<polygon fill="black" stroke="black" points="121.5,-274 118,-264 114.5,-274 121.5,-274"/>
</g>
<!-- imsic01_fromMem -->
<g id="node8" class="node">
<title>imsic01_fromMem</title>
<polygon fill="none" stroke="black" points="344.88,-262.19 259.12,-262.19 259.12,-219.69 344.88,-219.69 344.88,-262.19"/>
<text text-anchor="middle" x="302" y="-244.89" font-family="Times,serif" font-size="14.00">fromMem</text>
<text text-anchor="middle" x="302" y="-227.64" font-family="Times,serif" font-size="14.00">TLXbar</text>
</g>
<!-- imsic01_fromCSR -->
<g id="node9" class="node">
<title>imsic01_fromCSR</title>
<polygon fill="none" stroke="black" points="292.25,-183.69 211.75,-183.69 211.75,-141.19 292.25,-141.19 292.25,-183.69"/>
<text text-anchor="middle" x="252" y="-166.39" font-family="Times,serif" font-size="14.00">fromCSR</text>
<text text-anchor="middle" x="252" y="-149.14" font-family="Times,serif" font-size="14.00">Bundle</text>
</g>
<!-- imsic01_fromMem&#45;&gt;imsic01_fromCSR -->
<g id="edge7" class="edge">
<title>imsic01_fromMem&#45;&gt;imsic01_fromCSR</title>
<path fill="none" stroke="none" d="M275.69,-219.49C275.69,-219.49 275.69,-195.65 275.69,-195.65"/>
<polygon fill="none" stroke="none" points="279.19,-195.65 275.69,-185.65 272.19,-195.65 279.19,-195.65"/>
</g>
<!-- imsic01_toCSR -->
<g id="node10" class="node">
<title>imsic01_toCSR</title>
<polygon fill="none" stroke="black" points="376.12,-183.69 309.88,-183.69 309.88,-141.19 376.12,-141.19 376.12,-183.69"/>
<text text-anchor="middle" x="343" y="-166.39" font-family="Times,serif" font-size="14.00">toCSR</text>
<text text-anchor="middle" x="343" y="-149.14" font-family="Times,serif" font-size="14.00">Bundle</text>
</g>
<!-- imsic01_fromMem&#45;&gt;imsic01_toCSR -->
<g id="edge8" class="edge">
<title>imsic01_fromMem&#45;&gt;imsic01_toCSR</title>
<path fill="none" stroke="none" d="M327.38,-219.49C327.38,-219.49 327.38,-195.65 327.38,-195.65"/>
<polygon fill="none" stroke="none" points="330.88,-195.65 327.38,-185.65 323.88,-195.65 330.88,-195.65"/>
</g>
<!-- fromCSR1 -->
<g id="node23" class="node">
<title>fromCSR1</title>
<polygon fill="none" stroke="black" points="292.75,-105.19 203.25,-105.19 203.25,-62.69 292.75,-62.69 292.75,-105.19"/>
<text text-anchor="middle" x="248" y="-87.89" font-family="Times,serif" font-size="14.00">fromCSR1</text>
<text text-anchor="middle" x="248" y="-70.64" font-family="Times,serif" font-size="14.00">Bundle</text>
</g>
<!-- imsic01_fromCSR&#45;&gt;fromCSR1 -->
<g id="edge22" class="edge">
<title>imsic01_fromCSR&#45;&gt;fromCSR1</title>
<path fill="none" stroke="black" d="M252,-129.48C252,-129.48 252,-105.64 252,-105.64"/>
<polygon fill="black" stroke="black" points="248.5,-129.48 252,-139.48 255.5,-129.48 248.5,-129.48"/>
</g>
<!-- toCSR1 -->
<g id="node22" class="node">
<title>toCSR1</title>
<polygon fill="none" stroke="black" points="381,-105.19 311,-105.19 311,-62.69 381,-62.69 381,-105.19"/>
<text text-anchor="middle" x="346" y="-87.89" font-family="Times,serif" font-size="14.00">toCSR1</text>
<text text-anchor="middle" x="346" y="-70.64" font-family="Times,serif" font-size="14.00">Bundle</text>
</g>
<!-- imsic01_toCSR&#45;&gt;toCSR1 -->
<g id="edge21" class="edge">
<title>imsic01_toCSR&#45;&gt;toCSR1</title>
<path fill="none" stroke="black" d="M343.56,-140.99C343.56,-140.99 343.56,-117.15 343.56,-117.15"/>
<polygon fill="black" stroke="black" points="347.06,-117.15 343.56,-107.15 340.06,-117.15 347.06,-117.15"/>
</g>
<!-- map01&#45;&gt;imsic01_fromMem -->
<g id="edge10" class="edge">
<title>map01&#45;&gt;imsic01_fromMem</title>
<path fill="none" stroke="black" d="M302,-320.47C302,-320.47 302,-274 302,-274"/>
<polygon fill="black" stroke="black" points="305.5,-274 302,-264 298.5,-274 305.5,-274"/>
</g>
<!-- imsic10_fromMem -->
<g id="node12" class="node">
<title>imsic10_fromMem</title>
<polygon fill="none" stroke="black" points="528.88,-262.19 443.12,-262.19 443.12,-219.69 528.88,-219.69 528.88,-262.19"/>
<text text-anchor="middle" x="486" y="-244.89" font-family="Times,serif" font-size="14.00">fromMem</text>
<text text-anchor="middle" x="486" y="-227.64" font-family="Times,serif" font-size="14.00">TLXbar</text>
</g>
<!-- imsic10_fromCSR -->
<g id="node13" class="node">
<title>imsic10_fromCSR</title>
<polygon fill="none" stroke="black" points="487.25,-183.69 406.75,-183.69 406.75,-141.19 487.25,-141.19 487.25,-183.69"/>
<text text-anchor="middle" x="447" y="-166.39" font-family="Times,serif" font-size="14.00">fromCSR</text>
<text text-anchor="middle" x="447" y="-149.14" font-family="Times,serif" font-size="14.00">Bundle</text>
</g>
<!-- imsic10_fromMem&#45;&gt;imsic10_fromCSR -->
<g id="edge11" class="edge">
<title>imsic10_fromMem&#45;&gt;imsic10_fromCSR</title>
<path fill="none" stroke="none" d="M465.19,-219.49C465.19,-219.49 465.19,-195.65 465.19,-195.65"/>
<polygon fill="none" stroke="none" points="468.69,-195.65 465.19,-185.65 461.69,-195.65 468.69,-195.65"/>
</g>
<!-- imsic10_toCSR -->
<g id="node14" class="node">
<title>imsic10_toCSR</title>
<polygon fill="none" stroke="black" points="571.12,-183.69 504.88,-183.69 504.88,-141.19 571.12,-141.19 571.12,-183.69"/>
<text text-anchor="middle" x="538" y="-166.39" font-family="Times,serif" font-size="14.00">toCSR</text>
<text text-anchor="middle" x="538" y="-149.14" font-family="Times,serif" font-size="14.00">Bundle</text>
</g>
<!-- imsic10_fromMem&#45;&gt;imsic10_toCSR -->
<g id="edge12" class="edge">
<title>imsic10_fromMem&#45;&gt;imsic10_toCSR</title>
<path fill="none" stroke="none" d="M516.88,-219.49C516.88,-219.49 516.88,-195.65 516.88,-195.65"/>
<polygon fill="none" stroke="none" points="520.38,-195.65 516.88,-185.65 513.38,-195.65 520.38,-195.65"/>
</g>
<!-- fromCSR2 -->
<g id="node25" class="node">
<title>fromCSR2</title>
<polygon fill="none" stroke="black" points="488.75,-105.19 399.25,-105.19 399.25,-62.69 488.75,-62.69 488.75,-105.19"/>
<text text-anchor="middle" x="444" y="-87.89" font-family="Times,serif" font-size="14.00">fromCSR2</text>
<text text-anchor="middle" x="444" y="-70.64" font-family="Times,serif" font-size="14.00">Bundle</text>
</g>
<!-- imsic10_fromCSR&#45;&gt;fromCSR2 -->
<g id="edge24" class="edge">
<title>imsic10_fromCSR&#45;&gt;fromCSR2</title>
<path fill="none" stroke="black" d="M447,-129.48C447,-129.48 447,-105.64 447,-105.64"/>
<polygon fill="black" stroke="black" points="443.5,-129.48 447,-139.48 450.5,-129.48 443.5,-129.48"/>
</g>
<!-- toCSR2 -->
<g id="node24" class="node">
<title>toCSR2</title>
<polygon fill="none" stroke="black" points="577,-105.19 507,-105.19 507,-62.69 577,-62.69 577,-105.19"/>
<text text-anchor="middle" x="542" y="-87.89" font-family="Times,serif" font-size="14.00">toCSR2</text>
<text text-anchor="middle" x="542" y="-70.64" font-family="Times,serif" font-size="14.00">Bundle</text>
</g>
<!-- imsic10_toCSR&#45;&gt;toCSR2 -->
<g id="edge23" class="edge">
<title>imsic10_toCSR&#45;&gt;toCSR2</title>
<path fill="none" stroke="black" d="M539.06,-140.99C539.06,-140.99 539.06,-117.15 539.06,-117.15"/>
<polygon fill="black" stroke="black" points="542.56,-117.15 539.06,-107.15 535.56,-117.15 542.56,-117.15"/>
</g>
<!-- map10&#45;&gt;imsic10_fromMem -->
<g id="edge14" class="edge">
<title>map10&#45;&gt;imsic10_fromMem</title>
<path fill="none" stroke="black" d="M486,-320.47C486,-320.47 486,-274 486,-274"/>
<polygon fill="black" stroke="black" points="489.5,-274 486,-264 482.5,-274 489.5,-274"/>
</g>
<!-- imsic11_fromMem -->
<g id="node16" class="node">
<title>imsic11_fromMem</title>
<polygon fill="none" stroke="black" points="712.88,-262.19 627.12,-262.19 627.12,-219.69 712.88,-219.69 712.88,-262.19"/>
<text text-anchor="middle" x="670" y="-244.89" font-family="Times,serif" font-size="14.00">fromMem</text>
<text text-anchor="middle" x="670" y="-227.64" font-family="Times,serif" font-size="14.00">TLXbar</text>
</g>
<!-- imsic11_fromCSR -->
<g id="node17" class="node">
<title>imsic11_fromCSR</title>
<polygon fill="none" stroke="black" points="683.25,-183.69 602.75,-183.69 602.75,-141.19 683.25,-141.19 683.25,-183.69"/>
<text text-anchor="middle" x="643" y="-166.39" font-family="Times,serif" font-size="14.00">fromCSR</text>
<text text-anchor="middle" x="643" y="-149.14" font-family="Times,serif" font-size="14.00">Bundle</text>
</g>
<!-- imsic11_fromMem&#45;&gt;imsic11_fromCSR -->
<g id="edge15" class="edge">
<title>imsic11_fromMem&#45;&gt;imsic11_fromCSR</title>
<path fill="none" stroke="none" d="M655.19,-219.49C655.19,-219.49 655.19,-195.65 655.19,-195.65"/>
<polygon fill="none" stroke="none" points="658.69,-195.65 655.19,-185.65 651.69,-195.65 658.69,-195.65"/>
</g>
<!-- imsic11_toCSR -->
<g id="node18" class="node">
<title>imsic11_toCSR</title>
<polygon fill="none" stroke="black" points="767.12,-183.69 700.88,-183.69 700.88,-141.19 767.12,-141.19 767.12,-183.69"/>
<text text-anchor="middle" x="734" y="-166.39" font-family="Times,serif" font-size="14.00">toCSR</text>
<text text-anchor="middle" x="734" y="-149.14" font-family="Times,serif" font-size="14.00">Bundle</text>
</g>
<!-- imsic11_fromMem&#45;&gt;imsic11_toCSR -->
<g id="edge16" class="edge">
<title>imsic11_fromMem&#45;&gt;imsic11_toCSR</title>
<path fill="none" stroke="none" d="M706.88,-219.49C706.88,-219.49 706.88,-195.65 706.88,-195.65"/>
<polygon fill="none" stroke="none" points="710.38,-195.65 706.88,-185.65 703.38,-195.65 710.38,-195.65"/>
</g>
<!-- fromCSR3 -->
<g id="node27" class="node">
<title>fromCSR3</title>
<polygon fill="none" stroke="black" points="684.75,-105.19 595.25,-105.19 595.25,-62.69 684.75,-62.69 684.75,-105.19"/>
<text text-anchor="middle" x="640" y="-87.89" font-family="Times,serif" font-size="14.00">fromCSR3</text>
<text text-anchor="middle" x="640" y="-70.64" font-family="Times,serif" font-size="14.00">Bundle</text>
</g>
<!-- imsic11_fromCSR&#45;&gt;fromCSR3 -->
<g id="edge26" class="edge">
<title>imsic11_fromCSR&#45;&gt;fromCSR3</title>
<path fill="none" stroke="black" d="M643,-129.48C643,-129.48 643,-105.64 643,-105.64"/>
<polygon fill="black" stroke="black" points="639.5,-129.48 643,-139.48 646.5,-129.48 639.5,-129.48"/>
</g>
<!-- toCSR3 -->
<g id="node26" class="node">
<title>toCSR3</title>
<polygon fill="none" stroke="black" points="773,-105.19 703,-105.19 703,-62.69 773,-62.69 773,-105.19"/>
<text text-anchor="middle" x="738" y="-87.89" font-family="Times,serif" font-size="14.00">toCSR3</text>
<text text-anchor="middle" x="738" y="-70.64" font-family="Times,serif" font-size="14.00">Bundle</text>
</g>
<!-- imsic11_toCSR&#45;&gt;toCSR3 -->
<g id="edge25" class="edge">
<title>imsic11_toCSR&#45;&gt;toCSR3</title>
<path fill="none" stroke="black" d="M735.06,-140.99C735.06,-140.99 735.06,-117.15 735.06,-117.15"/>
<polygon fill="black" stroke="black" points="738.56,-117.15 735.06,-107.15 731.56,-117.15 738.56,-117.15"/>
</g>
<!-- map11&#45;&gt;imsic11_fromMem -->
<g id="edge18" class="edge">
<title>map11&#45;&gt;imsic11_fromMem</title>
<path fill="none" stroke="black" d="M670,-320.47C670,-320.47 670,-274 670,-274"/>
<polygon fill="black" stroke="black" points="673.5,-274 670,-264 666.5,-274 673.5,-274"/>
</g>
<!-- output -->
<g id="node33" class="node">
<title>output</title>
<polygon fill="none" stroke="none" points="755,-26.69 35,-26.69 35,-25.25 755,-25.25 755,-26.69"/>
</g>
<!-- toCSR0&#45;&gt;output -->
<g id="edge34" class="edge">
<title>toCSR0&#45;&gt;output</title>
<path fill="none" stroke="black" d="M150,-62.35C150,-62.35 150,-38.6 150,-38.6"/>
<polygon fill="black" stroke="black" points="153.5,-38.6 150,-28.6 146.5,-38.6 153.5,-38.6"/>
</g>
<!-- fromCSR0&#45;&gt;output -->
<g id="edge35" class="edge">
<title>fromCSR0&#45;&gt;output</title>
<path fill="none" stroke="black" d="M65.88,-50.84C65.88,-50.84 65.88,-27.09 65.88,-27.09"/>
<polygon fill="black" stroke="black" points="62.38,-50.84 65.88,-60.84 69.38,-50.84 62.38,-50.84"/>
</g>
<!-- toCSR1&#45;&gt;output -->
<g id="edge36" class="edge">
<title>toCSR1&#45;&gt;output</title>
<path fill="none" stroke="black" d="M346,-62.35C346,-62.35 346,-38.6 346,-38.6"/>
<polygon fill="black" stroke="black" points="349.5,-38.6 346,-28.6 342.5,-38.6 349.5,-38.6"/>
</g>
<!-- fromCSR1&#45;&gt;output -->
<g id="edge37" class="edge">
<title>fromCSR1&#45;&gt;output</title>
<path fill="none" stroke="black" d="M248,-50.84C248,-50.84 248,-27.09 248,-27.09"/>
<polygon fill="black" stroke="black" points="244.5,-50.84 248,-60.84 251.5,-50.84 244.5,-50.84"/>
</g>
<!-- toCSR2&#45;&gt;output -->
<g id="edge38" class="edge">
<title>toCSR2&#45;&gt;output</title>
<path fill="none" stroke="black" d="M542,-62.35C542,-62.35 542,-38.6 542,-38.6"/>
<polygon fill="black" stroke="black" points="545.5,-38.6 542,-28.6 538.5,-38.6 545.5,-38.6"/>
</g>
<!-- fromCSR2&#45;&gt;output -->
<g id="edge39" class="edge">
<title>fromCSR2&#45;&gt;output</title>
<path fill="none" stroke="black" d="M444,-50.84C444,-50.84 444,-27.09 444,-27.09"/>
<polygon fill="black" stroke="black" points="440.5,-50.84 444,-60.84 447.5,-50.84 440.5,-50.84"/>
</g>
<!-- toCSR3&#45;&gt;output -->
<g id="edge40" class="edge">
<title>toCSR3&#45;&gt;output</title>
<path fill="none" stroke="black" d="M729,-62.35C729,-62.35 729,-38.6 729,-38.6"/>
<polygon fill="black" stroke="black" points="732.5,-38.6 729,-28.6 725.5,-38.6 732.5,-38.6"/>
</g>
<!-- fromCSR3&#45;&gt;output -->
<g id="edge41" class="edge">
<title>fromCSR3&#45;&gt;output</title>
<path fill="none" stroke="black" d="M640,-50.84C640,-50.84 640,-27.09 640,-27.09"/>
<polygon fill="black" stroke="black" points="636.5,-50.84 640,-60.84 643.5,-50.84 636.5,-50.84"/>
</g>
<!-- aplic_toIMSIC -->
<g id="node29" class="node">
<title>aplic_toIMSIC</title>
<polygon fill="none" stroke="black" points="465.62,-554.69 390.38,-554.69 390.38,-512.19 465.62,-512.19 465.62,-554.69"/>
<text text-anchor="middle" x="428" y="-537.39" font-family="Times,serif" font-size="14.00">toIMSIC</text>
<text text-anchor="middle" x="428" y="-520.14" font-family="Times,serif" font-size="14.00">TLXbar</text>
</g>
<!-- aplic_fromCPU&#45;&gt;aplic_toIMSIC -->
<g id="edge27" class="edge">
<title>aplic_fromCPU&#45;&gt;aplic_toIMSIC</title>
<path fill="none" stroke="none" d="M428,-590.49C428,-590.49 428,-566.65 428,-566.65"/>
<polygon fill="none" stroke="none" points="431.5,-566.65 428,-556.65 424.5,-566.65 431.5,-566.65"/>
</g>
<!-- aplic_toIMSIC&#45;&gt;imsics_fromMem_xbar -->
<g id="edge30" class="edge">
<title>aplic_toIMSIC&#45;&gt;imsics_fromMem_xbar</title>
<path fill="none" stroke="black" d="M428,-511.99C428,-511.99 428,-488.15 428,-488.15"/>
<polygon fill="black" stroke="black" points="431.5,-488.15 428,-478.15 424.5,-488.15 431.5,-488.15"/>
</g>
<!-- aplic_intSrcs -->
<g id="node30" class="node">
<title>aplic_intSrcs</title>
<polygon fill="none" stroke="black" points="611,-633.19 487,-633.19 487,-590.69 611,-590.69 611,-633.19"/>
<text text-anchor="middle" x="549" y="-615.89" font-family="Times,serif" font-size="14.00">module.intSrcs</text>
<text text-anchor="middle" x="549" y="-598.64" font-family="Times,serif" font-size="14.00">Bundle</text>
</g>
<!-- aplic_intSrcs&#45;&gt;aplic_toIMSIC -->
<g id="edge28" class="edge">
<title>aplic_intSrcs&#45;&gt;aplic_toIMSIC</title>
<path fill="none" stroke="none" d="M549,-590.44C549,-567.14 549,-533.25 549,-533.25 549,-533.25 477.47,-533.25 477.47,-533.25"/>
<polygon fill="none" stroke="none" points="477.47,-529.75 467.47,-533.25 477.47,-536.75 477.47,-529.75"/>
</g>
<!-- intSrcs -->
<g id="node31" class="node">
<title>intSrcs</title>
<polygon fill="none" stroke="black" points="624.5,-734.19 557.5,-734.19 557.5,-691.69 624.5,-691.69 624.5,-734.19"/>
<text text-anchor="middle" x="591" y="-716.89" font-family="Times,serif" font-size="14.00">intSrcs</text>
<text text-anchor="middle" x="591" y="-699.64" font-family="Times,serif" font-size="14.00">Bundle</text>
</g>
<!-- intSrcs&#45;&gt;aplic_intSrcs -->
<g id="edge31" class="edge">
<title>intSrcs&#45;&gt;aplic_intSrcs</title>
<path fill="none" stroke="black" d="M584.25,-691.52C584.25,-691.52 584.25,-645.19 584.25,-645.19"/>
<polygon fill="black" stroke="black" points="587.75,-645.19 584.25,-635.19 580.75,-645.19 587.75,-645.19"/>
</g>
<!-- input -->
<g id="node32" class="node">
<title>input</title>
<polygon fill="none" stroke="none" points="654,-850.13 294,-850.13 294,-848.69 654,-848.69 654,-850.13"/>
</g>
<!-- input&#45;&gt;toAIA -->
<g id="edge33" class="edge">
<title>input&#45;&gt;toAIA</title>
<path fill="none" stroke="black" d="M432,-848.4C432,-848.4 432,-824.54 432,-824.54"/>
<polygon fill="black" stroke="black" points="435.5,-824.54 432,-814.54 428.5,-824.54 435.5,-824.54"/>
</g>
<!-- input&#45;&gt;intSrcs -->
<g id="edge32" class="edge">
<title>input&#45;&gt;intSrcs</title>
<path fill="none" stroke="black" d="M591,-848.54C591,-848.54 591,-745.98 591,-745.98"/>
<polygon fill="black" stroke="black" points="594.5,-745.98 591,-735.98 587.5,-745.98 594.5,-745.98"/>
</g>
</g>
</svg>
