<?xml version="1.0" encoding="UTF-8" standalone="no"?>
<!DOCTYPE svg PUBLIC "-//W3C//DTD SVG 1.1//EN"
 "http://www.w3.org/Graphics/SVG/1.1/DTD/svg11.dtd">
<!-- Generated by graphviz version 10.0.1 (0)
 -->
<!-- Title: G Pages: 1 -->
<svg width="454px" height="1579px"
 viewBox="0.00 0.00 454.25 1579.25" xmlns="http://www.w3.org/2000/svg" xmlns:xlink="http://www.w3.org/1999/xlink">
<g id="graph0" class="graph" transform="scale(1 1) rotate(0) translate(4 1575.25)">
<title>G</title>
<text text-anchor="middle" x="223.12" y="-7.95" font-family="Times,serif" font-size="14.00">IMSIC Logic Arrangement</text>
<g id="clust1" class="cluster">
<title>group_0</title>
<polygon fill="#dae8fc" stroke="#6c8ebf" points="112.75,-802.25 112.75,-1563.25 438.25,-1563.25 438.25,-802.25 112.75,-802.25"/>
<text text-anchor="middle" x="275.5" y="-1545.95" font-family="Times,serif" font-size="14.00">Group 0</text>
</g>
<g id="clust2" class="cluster">
<title>imsichart_0_0</title>
<polygon fill="#d5e8d4" stroke="#82b366" points="222,-814.25 222,-1166.25 430.25,-1166.25 430.25,-814.25 222,-814.25"/>
<text text-anchor="middle" x="326.12" y="-1148.95" font-family="Times,serif" font-size="14.00">Member 00</text>
</g>
<g id="clust3" class="cluster">
<title>imsic_0_0</title>
<polygon fill="#f8cecc" stroke="#b85450" points="230,-822.25 230,-1133.25 346.75,-1133.25 346.75,-822.25 230,-822.25"/>
<text text-anchor="middle" x="288.38" y="-1115.95" font-family="Times,serif" font-size="14.00">IMSIC 00</text>
</g>
<g id="clust4" class="cluster">
<title>imsic_0_0_m</title>
<polygon fill="#ffe6cc" stroke="#d79b00" points="247.38,-830.25 247.38,-907.25 329.38,-907.25 329.38,-830.25 247.38,-830.25"/>
<text text-anchor="middle" x="288.38" y="-889.95" font-family="Times,serif" font-size="14.00">M Level</text>
</g>
<g id="clust5" class="cluster">
<title>imsic_0_0_s</title>
<polygon fill="#ffe6cc" stroke="#d79b00" points="238,-915.25 238,-1100.25 338.75,-1100.25 338.75,-915.25 238,-915.25"/>
<text text-anchor="middle" x="288.38" y="-1082.95" font-family="Times,serif" font-size="14.00">S Level</text>
</g>
<g id="clust6" class="cluster">
<title>imsichart_0_1</title>
<polygon fill="#d5e8d4" stroke="#82b366" points="222,-1174.25 222,-1526.25 430.25,-1526.25 430.25,-1174.25 222,-1174.25"/>
<text text-anchor="middle" x="326.12" y="-1508.95" font-family="Times,serif" font-size="14.00">Member 01</text>
</g>
<g id="clust7" class="cluster">
<title>imsic_0_1</title>
<polygon fill="#f8cecc" stroke="#b85450" points="230,-1182.25 230,-1493.25 346.75,-1493.25 346.75,-1182.25 230,-1182.25"/>
<text text-anchor="middle" x="288.38" y="-1475.95" font-family="Times,serif" font-size="14.00">IMSIC 01</text>
</g>
<g id="clust8" class="cluster">
<title>imsic_0_1_m</title>
<polygon fill="#ffe6cc" stroke="#d79b00" points="247.38,-1190.25 247.38,-1267.25 329.38,-1267.25 329.38,-1190.25 247.38,-1190.25"/>
<text text-anchor="middle" x="288.38" y="-1249.95" font-family="Times,serif" font-size="14.00">M Level</text>
</g>
<g id="clust9" class="cluster">
<title>imsic_0_1_s</title>
<polygon fill="#ffe6cc" stroke="#d79b00" points="238,-1275.25 238,-1460.25 338.75,-1460.25 338.75,-1275.25 238,-1275.25"/>
<text text-anchor="middle" x="288.38" y="-1442.95" font-family="Times,serif" font-size="14.00">S Level</text>
</g>
<g id="clust10" class="cluster">
<title>group_1</title>
<polygon fill="#dae8fc" stroke="#6c8ebf" points="112.75,-33.25 112.75,-794.25 438.25,-794.25 438.25,-33.25 112.75,-33.25"/>
<text text-anchor="middle" x="275.5" y="-776.95" font-family="Times,serif" font-size="14.00">Group 1</text>
</g>
<g id="clust11" class="cluster">
<title>imsichart_1_0</title>
<polygon fill="#d5e8d4" stroke="#82b366" points="222,-45.25 222,-397.25 430.25,-397.25 430.25,-45.25 222,-45.25"/>
<text text-anchor="middle" x="326.12" y="-379.95" font-family="Times,serif" font-size="14.00">Member 10</text>
</g>
<g id="clust12" class="cluster">
<title>imsic_1_0</title>
<polygon fill="#f8cecc" stroke="#b85450" points="230,-53.25 230,-364.25 346.75,-364.25 346.75,-53.25 230,-53.25"/>
<text text-anchor="middle" x="288.38" y="-346.95" font-family="Times,serif" font-size="14.00">IMSIC 10</text>
</g>
<g id="clust13" class="cluster">
<title>imsic_1_0_m</title>
<polygon fill="#ffe6cc" stroke="#d79b00" points="247.38,-61.25 247.38,-138.25 329.38,-138.25 329.38,-61.25 247.38,-61.25"/>
<text text-anchor="middle" x="288.38" y="-120.95" font-family="Times,serif" font-size="14.00">M Level</text>
</g>
<g id="clust14" class="cluster">
<title>imsic_1_0_s</title>
<polygon fill="#ffe6cc" stroke="#d79b00" points="238,-146.25 238,-331.25 338.75,-331.25 338.75,-146.25 238,-146.25"/>
<text text-anchor="middle" x="288.38" y="-313.95" font-family="Times,serif" font-size="14.00">S Level</text>
</g>
<g id="clust15" class="cluster">
<title>imsichart_1_1</title>
<polygon fill="#d5e8d4" stroke="#82b366" points="222,-405.25 222,-757.25 430.25,-757.25 430.25,-405.25 222,-405.25"/>
<text text-anchor="middle" x="326.12" y="-739.95" font-family="Times,serif" font-size="14.00">Member 11</text>
</g>
<g id="clust16" class="cluster">
<title>imsic_1_1</title>
<polygon fill="#f8cecc" stroke="#b85450" points="230,-413.25 230,-724.25 346.75,-724.25 346.75,-413.25 230,-413.25"/>
<text text-anchor="middle" x="288.38" y="-706.95" font-family="Times,serif" font-size="14.00">IMSIC 11</text>
</g>
<g id="clust17" class="cluster">
<title>imsic_1_1_m</title>
<polygon fill="#ffe6cc" stroke="#d79b00" points="247.38,-421.25 247.38,-498.25 329.38,-498.25 329.38,-421.25 247.38,-421.25"/>
<text text-anchor="middle" x="288.38" y="-480.95" font-family="Times,serif" font-size="14.00">M Level</text>
</g>
<g id="clust18" class="cluster">
<title>imsic_1_1_s</title>
<polygon fill="#ffe6cc" stroke="#d79b00" points="238,-506.25 238,-691.25 338.75,-691.25 338.75,-506.25 238,-506.25"/>
<text text-anchor="middle" x="288.38" y="-673.95" font-family="Times,serif" font-size="14.00">S Level</text>
</g>
<!-- bus -->
<g id="node1" class="node">
<title>bus</title>
<polygon fill="none" stroke="black" points="84.75,-1505.25 0,-1505.25 0,-65.25 84.75,-65.25 84.75,-1505.25"/>
<text text-anchor="middle" x="42.38" y="-780.58" font-family="Times,serif" font-size="14.00">System Bus</text>
</g>
<!-- bus_0 -->
<g id="node2" class="node">
<title>bus_0</title>
<polygon fill="none" stroke="black" points="210,-1530.25 120.75,-1530.25 120.75,-810.25 210,-810.25 210,-1530.25"/>
<text text-anchor="middle" x="165.38" y="-1165.58" font-family="Times,serif" font-size="14.00">Group Bus 0</text>
</g>
<!-- bus&#45;&gt;bus_0 -->
<g id="edge17" class="edge">
<title>bus&#45;&gt;bus_0</title>
<path fill="none" stroke="black" d="M85.05,-1157.75C85.05,-1155.75 108.75,-1155.75 108.75,-1157.75"/>
<path fill="none" stroke="none" d="M85.05,-1157.75C85.05,-1157.75 108.75,-1157.75 108.75,-1157.75"/>
<path fill="none" stroke="black" d="M85.05,-1157.75C85.05,-1159.75 108.75,-1159.75 108.75,-1157.75"/>
<polygon fill="black" stroke="black" points="108.75,-1161.25 118.75,-1157.75 108.75,-1154.25 108.75,-1161.25"/>
</g>
<!-- bus_1 -->
<g id="node13" class="node">
<title>bus_1</title>
<polygon fill="none" stroke="black" points="210,-761.25 120.75,-761.25 120.75,-41.25 210,-41.25 210,-761.25"/>
<text text-anchor="middle" x="165.38" y="-396.57" font-family="Times,serif" font-size="14.00">Group Bus 1</text>
</g>
<!-- bus&#45;&gt;bus_1 -->
<g id="edge34" class="edge">
<title>bus&#45;&gt;bus_1</title>
<path fill="none" stroke="black" d="M85.05,-413.25C85.05,-411.25 108.75,-411.25 108.75,-413.25"/>
<path fill="none" stroke="none" d="M85.05,-413.25C85.05,-413.25 108.75,-413.25 108.75,-413.25"/>
<path fill="none" stroke="black" d="M85.05,-413.25C85.05,-415.25 108.75,-415.25 108.75,-413.25"/>
<polygon fill="black" stroke="black" points="108.75,-416.75 118.75,-413.25 108.75,-409.75 108.75,-416.75"/>
</g>
<!-- imsic_0_0_intfile_m -->
<g id="node4" class="node">
<title>imsic_0_0_intfile_m</title>
<polygon fill="none" stroke="black" points="321.38,-874.25 255.38,-874.25 255.38,-838.25 321.38,-838.25 321.38,-874.25"/>
<text text-anchor="middle" x="288.38" y="-851.58" font-family="Times,serif" font-size="14.00">M IntFile</text>
</g>
<!-- bus_0&#45;&gt;imsic_0_0_intfile_m -->
<g id="edge5" class="edge">
<title>bus_0&#45;&gt;imsic_0_0_intfile_m</title>
<path fill="none" stroke="black" d="M210.48,-856.25C210.48,-856.25 243.71,-856.25 243.71,-856.25"/>
<polygon fill="black" stroke="black" points="243.71,-859.75 253.71,-856.25 243.71,-852.75 243.71,-859.75"/>
</g>
<!-- imsic_0_0_intfile_s -->
<g id="node5" class="node">
<title>imsic_0_0_intfile_s</title>
<polygon fill="none" stroke="black" points="319.12,-959.25 257.62,-959.25 257.62,-923.25 319.12,-923.25 319.12,-959.25"/>
<text text-anchor="middle" x="288.38" y="-936.58" font-family="Times,serif" font-size="14.00">S IntFile</text>
</g>
<!-- bus_0&#45;&gt;imsic_0_0_intfile_s -->
<g id="edge6" class="edge">
<title>bus_0&#45;&gt;imsic_0_0_intfile_s</title>
<path fill="none" stroke="black" d="M210.48,-941.25C210.48,-941.25 245.98,-941.25 245.98,-941.25"/>
<polygon fill="black" stroke="black" points="245.98,-944.75 255.98,-941.25 245.98,-937.75 245.98,-944.75"/>
</g>
<!-- imsic_0_0_intfile_vs_0 -->
<g id="node6" class="node">
<title>imsic_0_0_intfile_vs_0</title>
<polygon fill="none" stroke="black" points="330.75,-1013.25 246,-1013.25 246,-977.25 330.75,-977.25 330.75,-1013.25"/>
<text text-anchor="middle" x="288.38" y="-990.58" font-family="Times,serif" font-size="14.00">VS IntFile 0</text>
</g>
<!-- bus_0&#45;&gt;imsic_0_0_intfile_vs_0 -->
<g id="edge7" class="edge">
<title>bus_0&#45;&gt;imsic_0_0_intfile_vs_0</title>
<path fill="none" stroke="black" d="M210.48,-995.25C210.48,-995.25 234.22,-995.25 234.22,-995.25"/>
<polygon fill="black" stroke="black" points="234.22,-998.75 244.22,-995.25 234.22,-991.75 234.22,-998.75"/>
</g>
<!-- imsic_0_0_intfile_vs_1 -->
<g id="node7" class="node">
<title>imsic_0_0_intfile_vs_1</title>
<polygon fill="none" stroke="black" points="330.75,-1067.25 246,-1067.25 246,-1031.25 330.75,-1031.25 330.75,-1067.25"/>
<text text-anchor="middle" x="288.38" y="-1044.58" font-family="Times,serif" font-size="14.00">VS IntFile 1</text>
</g>
<!-- bus_0&#45;&gt;imsic_0_0_intfile_vs_1 -->
<g id="edge8" class="edge">
<title>bus_0&#45;&gt;imsic_0_0_intfile_vs_1</title>
<path fill="none" stroke="black" d="M210.48,-1049.25C210.48,-1049.25 234.22,-1049.25 234.22,-1049.25"/>
<polygon fill="black" stroke="black" points="234.22,-1052.75 244.22,-1049.25 234.22,-1045.75 234.22,-1052.75"/>
</g>
<!-- imsic_0_1_intfile_m -->
<g id="node9" class="node">
<title>imsic_0_1_intfile_m</title>
<polygon fill="none" stroke="black" points="321.38,-1234.25 255.38,-1234.25 255.38,-1198.25 321.38,-1198.25 321.38,-1234.25"/>
<text text-anchor="middle" x="288.38" y="-1211.58" font-family="Times,serif" font-size="14.00">M IntFile</text>
</g>
<!-- bus_0&#45;&gt;imsic_0_1_intfile_m -->
<g id="edge13" class="edge">
<title>bus_0&#45;&gt;imsic_0_1_intfile_m</title>
<path fill="none" stroke="black" d="M210.48,-1216.25C210.48,-1216.25 243.71,-1216.25 243.71,-1216.25"/>
<polygon fill="black" stroke="black" points="243.71,-1219.75 253.71,-1216.25 243.71,-1212.75 243.71,-1219.75"/>
</g>
<!-- imsic_0_1_intfile_s -->
<g id="node10" class="node">
<title>imsic_0_1_intfile_s</title>
<polygon fill="none" stroke="black" points="319.12,-1319.25 257.62,-1319.25 257.62,-1283.25 319.12,-1283.25 319.12,-1319.25"/>
<text text-anchor="middle" x="288.38" y="-1296.58" font-family="Times,serif" font-size="14.00">S IntFile</text>
</g>
<!-- bus_0&#45;&gt;imsic_0_1_intfile_s -->
<g id="edge14" class="edge">
<title>bus_0&#45;&gt;imsic_0_1_intfile_s</title>
<path fill="none" stroke="black" d="M210.48,-1301.25C210.48,-1301.25 245.98,-1301.25 245.98,-1301.25"/>
<polygon fill="black" stroke="black" points="245.98,-1304.75 255.98,-1301.25 245.98,-1297.75 245.98,-1304.75"/>
</g>
<!-- imsic_0_1_intfile_vs_0 -->
<g id="node11" class="node">
<title>imsic_0_1_intfile_vs_0</title>
<polygon fill="none" stroke="black" points="330.75,-1373.25 246,-1373.25 246,-1337.25 330.75,-1337.25 330.75,-1373.25"/>
<text text-anchor="middle" x="288.38" y="-1350.58" font-family="Times,serif" font-size="14.00">VS IntFile 0</text>
</g>
<!-- bus_0&#45;&gt;imsic_0_1_intfile_vs_0 -->
<g id="edge15" class="edge">
<title>bus_0&#45;&gt;imsic_0_1_intfile_vs_0</title>
<path fill="none" stroke="black" d="M210.48,-1355.25C210.48,-1355.25 234.22,-1355.25 234.22,-1355.25"/>
<polygon fill="black" stroke="black" points="234.22,-1358.75 244.22,-1355.25 234.22,-1351.75 234.22,-1358.75"/>
</g>
<!-- imsic_0_1_intfile_vs_1 -->
<g id="node12" class="node">
<title>imsic_0_1_intfile_vs_1</title>
<polygon fill="none" stroke="black" points="330.75,-1427.25 246,-1427.25 246,-1391.25 330.75,-1391.25 330.75,-1427.25"/>
<text text-anchor="middle" x="288.38" y="-1404.58" font-family="Times,serif" font-size="14.00">VS IntFile 1</text>
</g>
<!-- bus_0&#45;&gt;imsic_0_1_intfile_vs_1 -->
<g id="edge16" class="edge">
<title>bus_0&#45;&gt;imsic_0_1_intfile_vs_1</title>
<path fill="none" stroke="black" d="M210.48,-1409.25C210.48,-1409.25 234.22,-1409.25 234.22,-1409.25"/>
<polygon fill="black" stroke="black" points="234.22,-1412.75 244.22,-1409.25 234.22,-1405.75 234.22,-1412.75"/>
</g>
<!-- imsichart_0_0_hart -->
<g id="node3" class="node">
<title>imsichart_0_0_hart</title>
<polygon fill="none" stroke="black" points="422.25,-1121.25 366.75,-1121.25 366.75,-833.25 422.25,-833.25 422.25,-1121.25"/>
<text text-anchor="middle" x="394.5" y="-972.58" font-family="Times,serif" font-size="14.00">Hart 00</text>
</g>
<!-- imsic_0_0_intfile_m&#45;&gt;imsichart_0_0_hart -->
<g id="edge1" class="edge">
<title>imsic_0_0_intfile_m&#45;&gt;imsichart_0_0_hart</title>
<path fill="none" stroke="black" d="M321.66,-856.25C321.66,-856.25 354.81,-856.25 354.81,-856.25"/>
<polygon fill="black" stroke="black" points="354.81,-859.75 364.81,-856.25 354.81,-852.75 354.81,-859.75"/>
</g>
<!-- imsic_0_0_intfile_s&#45;&gt;imsichart_0_0_hart -->
<g id="edge2" class="edge">
<title>imsic_0_0_intfile_s&#45;&gt;imsichart_0_0_hart</title>
<path fill="none" stroke="black" d="M319.36,-941.25C319.36,-941.25 355.04,-941.25 355.04,-941.25"/>
<polygon fill="black" stroke="black" points="355.04,-944.75 365.04,-941.25 355.04,-937.75 355.04,-944.75"/>
</g>
<!-- imsic_0_0_intfile_vs_0&#45;&gt;imsichart_0_0_hart -->
<g id="edge3" class="edge">
<title>imsic_0_0_intfile_vs_0&#45;&gt;imsichart_0_0_hart</title>
<path fill="none" stroke="black" d="M331.23,-995.25C331.23,-995.25 354.9,-995.25 354.9,-995.25"/>
<polygon fill="black" stroke="black" points="354.9,-998.75 364.9,-995.25 354.9,-991.75 354.9,-998.75"/>
</g>
<!-- imsic_0_0_intfile_vs_1&#45;&gt;imsichart_0_0_hart -->
<g id="edge4" class="edge">
<title>imsic_0_0_intfile_vs_1&#45;&gt;imsichart_0_0_hart</title>
<path fill="none" stroke="black" d="M331.23,-1049.25C331.23,-1049.25 354.9,-1049.25 354.9,-1049.25"/>
<polygon fill="black" stroke="black" points="354.9,-1052.75 364.9,-1049.25 354.9,-1045.75 354.9,-1052.75"/>
</g>
<!-- imsichart_0_1_hart -->
<g id="node8" class="node">
<title>imsichart_0_1_hart</title>
<polygon fill="none" stroke="black" points="422.25,-1481.25 366.75,-1481.25 366.75,-1193.25 422.25,-1193.25 422.25,-1481.25"/>
<text text-anchor="middle" x="394.5" y="-1332.58" font-family="Times,serif" font-size="14.00">Hart 01</text>
</g>
<!-- imsic_0_1_intfile_m&#45;&gt;imsichart_0_1_hart -->
<g id="edge9" class="edge">
<title>imsic_0_1_intfile_m&#45;&gt;imsichart_0_1_hart</title>
<path fill="none" stroke="black" d="M321.66,-1216.25C321.66,-1216.25 354.81,-1216.25 354.81,-1216.25"/>
<polygon fill="black" stroke="black" points="354.81,-1219.75 364.81,-1216.25 354.81,-1212.75 354.81,-1219.75"/>
</g>
<!-- imsic_0_1_intfile_s&#45;&gt;imsichart_0_1_hart -->
<g id="edge10" class="edge">
<title>imsic_0_1_intfile_s&#45;&gt;imsichart_0_1_hart</title>
<path fill="none" stroke="black" d="M319.36,-1301.25C319.36,-1301.25 355.04,-1301.25 355.04,-1301.25"/>
<polygon fill="black" stroke="black" points="355.04,-1304.75 365.04,-1301.25 355.04,-1297.75 355.04,-1304.75"/>
</g>
<!-- imsic_0_1_intfile_vs_0&#45;&gt;imsichart_0_1_hart -->
<g id="edge11" class="edge">
<title>imsic_0_1_intfile_vs_0&#45;&gt;imsichart_0_1_hart</title>
<path fill="none" stroke="black" d="M331.23,-1355.25C331.23,-1355.25 354.9,-1355.25 354.9,-1355.25"/>
<polygon fill="black" stroke="black" points="354.9,-1358.75 364.9,-1355.25 354.9,-1351.75 354.9,-1358.75"/>
</g>
<!-- imsic_0_1_intfile_vs_1&#45;&gt;imsichart_0_1_hart -->
<g id="edge12" class="edge">
<title>imsic_0_1_intfile_vs_1&#45;&gt;imsichart_0_1_hart</title>
<path fill="none" stroke="black" d="M331.23,-1409.25C331.23,-1409.25 354.9,-1409.25 354.9,-1409.25"/>
<polygon fill="black" stroke="black" points="354.9,-1412.75 364.9,-1409.25 354.9,-1405.75 354.9,-1412.75"/>
</g>
<!-- imsic_1_0_intfile_m -->
<g id="node15" class="node">
<title>imsic_1_0_intfile_m</title>
<polygon fill="none" stroke="black" points="321.38,-105.25 255.38,-105.25 255.38,-69.25 321.38,-69.25 321.38,-105.25"/>
<text text-anchor="middle" x="288.38" y="-82.58" font-family="Times,serif" font-size="14.00">M IntFile</text>
</g>
<!-- bus_1&#45;&gt;imsic_1_0_intfile_m -->
<g id="edge22" class="edge">
<title>bus_1&#45;&gt;imsic_1_0_intfile_m</title>
<path fill="none" stroke="black" d="M210.48,-87.25C210.48,-87.25 243.71,-87.25 243.71,-87.25"/>
<polygon fill="black" stroke="black" points="243.71,-90.75 253.71,-87.25 243.71,-83.75 243.71,-90.75"/>
</g>
<!-- imsic_1_0_intfile_s -->
<g id="node16" class="node">
<title>imsic_1_0_intfile_s</title>
<polygon fill="none" stroke="black" points="319.12,-190.25 257.62,-190.25 257.62,-154.25 319.12,-154.25 319.12,-190.25"/>
<text text-anchor="middle" x="288.38" y="-167.57" font-family="Times,serif" font-size="14.00">S IntFile</text>
</g>
<!-- bus_1&#45;&gt;imsic_1_0_intfile_s -->
<g id="edge23" class="edge">
<title>bus_1&#45;&gt;imsic_1_0_intfile_s</title>
<path fill="none" stroke="black" d="M210.48,-172.25C210.48,-172.25 245.98,-172.25 245.98,-172.25"/>
<polygon fill="black" stroke="black" points="245.98,-175.75 255.98,-172.25 245.98,-168.75 245.98,-175.75"/>
</g>
<!-- imsic_1_0_intfile_vs_0 -->
<g id="node17" class="node">
<title>imsic_1_0_intfile_vs_0</title>
<polygon fill="none" stroke="black" points="330.75,-244.25 246,-244.25 246,-208.25 330.75,-208.25 330.75,-244.25"/>
<text text-anchor="middle" x="288.38" y="-221.57" font-family="Times,serif" font-size="14.00">VS IntFile 0</text>
</g>
<!-- bus_1&#45;&gt;imsic_1_0_intfile_vs_0 -->
<g id="edge24" class="edge">
<title>bus_1&#45;&gt;imsic_1_0_intfile_vs_0</title>
<path fill="none" stroke="black" d="M210.48,-226.25C210.48,-226.25 234.22,-226.25 234.22,-226.25"/>
<polygon fill="black" stroke="black" points="234.22,-229.75 244.22,-226.25 234.22,-222.75 234.22,-229.75"/>
</g>
<!-- imsic_1_0_intfile_vs_1 -->
<g id="node18" class="node">
<title>imsic_1_0_intfile_vs_1</title>
<polygon fill="none" stroke="black" points="330.75,-298.25 246,-298.25 246,-262.25 330.75,-262.25 330.75,-298.25"/>
<text text-anchor="middle" x="288.38" y="-275.57" font-family="Times,serif" font-size="14.00">VS IntFile 1</text>
</g>
<!-- bus_1&#45;&gt;imsic_1_0_intfile_vs_1 -->
<g id="edge25" class="edge">
<title>bus_1&#45;&gt;imsic_1_0_intfile_vs_1</title>
<path fill="none" stroke="black" d="M210.48,-280.25C210.48,-280.25 234.22,-280.25 234.22,-280.25"/>
<polygon fill="black" stroke="black" points="234.22,-283.75 244.22,-280.25 234.22,-276.75 234.22,-283.75"/>
</g>
<!-- imsic_1_1_intfile_m -->
<g id="node20" class="node">
<title>imsic_1_1_intfile_m</title>
<polygon fill="none" stroke="black" points="321.38,-465.25 255.38,-465.25 255.38,-429.25 321.38,-429.25 321.38,-465.25"/>
<text text-anchor="middle" x="288.38" y="-442.57" font-family="Times,serif" font-size="14.00">M IntFile</text>
</g>
<!-- bus_1&#45;&gt;imsic_1_1_intfile_m -->
<g id="edge30" class="edge">
<title>bus_1&#45;&gt;imsic_1_1_intfile_m</title>
<path fill="none" stroke="black" d="M210.48,-447.25C210.48,-447.25 243.71,-447.25 243.71,-447.25"/>
<polygon fill="black" stroke="black" points="243.71,-450.75 253.71,-447.25 243.71,-443.75 243.71,-450.75"/>
</g>
<!-- imsic_1_1_intfile_s -->
<g id="node21" class="node">
<title>imsic_1_1_intfile_s</title>
<polygon fill="none" stroke="black" points="319.12,-550.25 257.62,-550.25 257.62,-514.25 319.12,-514.25 319.12,-550.25"/>
<text text-anchor="middle" x="288.38" y="-527.58" font-family="Times,serif" font-size="14.00">S IntFile</text>
</g>
<!-- bus_1&#45;&gt;imsic_1_1_intfile_s -->
<g id="edge31" class="edge">
<title>bus_1&#45;&gt;imsic_1_1_intfile_s</title>
<path fill="none" stroke="black" d="M210.48,-532.25C210.48,-532.25 245.98,-532.25 245.98,-532.25"/>
<polygon fill="black" stroke="black" points="245.98,-535.75 255.98,-532.25 245.98,-528.75 245.98,-535.75"/>
</g>
<!-- imsic_1_1_intfile_vs_0 -->
<g id="node22" class="node">
<title>imsic_1_1_intfile_vs_0</title>
<polygon fill="none" stroke="black" points="330.75,-604.25 246,-604.25 246,-568.25 330.75,-568.25 330.75,-604.25"/>
<text text-anchor="middle" x="288.38" y="-581.58" font-family="Times,serif" font-size="14.00">VS IntFile 0</text>
</g>
<!-- bus_1&#45;&gt;imsic_1_1_intfile_vs_0 -->
<g id="edge32" class="edge">
<title>bus_1&#45;&gt;imsic_1_1_intfile_vs_0</title>
<path fill="none" stroke="black" d="M210.48,-586.25C210.48,-586.25 234.22,-586.25 234.22,-586.25"/>
<polygon fill="black" stroke="black" points="234.22,-589.75 244.22,-586.25 234.22,-582.75 234.22,-589.75"/>
</g>
<!-- imsic_1_1_intfile_vs_1 -->
<g id="node23" class="node">
<title>imsic_1_1_intfile_vs_1</title>
<polygon fill="none" stroke="black" points="330.75,-658.25 246,-658.25 246,-622.25 330.75,-622.25 330.75,-658.25"/>
<text text-anchor="middle" x="288.38" y="-635.58" font-family="Times,serif" font-size="14.00">VS IntFile 1</text>
</g>
<!-- bus_1&#45;&gt;imsic_1_1_intfile_vs_1 -->
<g id="edge33" class="edge">
<title>bus_1&#45;&gt;imsic_1_1_intfile_vs_1</title>
<path fill="none" stroke="black" d="M210.48,-640.25C210.48,-640.25 234.22,-640.25 234.22,-640.25"/>
<polygon fill="black" stroke="black" points="234.22,-643.75 244.22,-640.25 234.22,-636.75 234.22,-643.75"/>
</g>
<!-- imsichart_1_0_hart -->
<g id="node14" class="node">
<title>imsichart_1_0_hart</title>
<polygon fill="none" stroke="black" points="422.25,-352.25 366.75,-352.25 366.75,-64.25 422.25,-64.25 422.25,-352.25"/>
<text text-anchor="middle" x="394.5" y="-203.57" font-family="Times,serif" font-size="14.00">Hart 10</text>
</g>
<!-- imsic_1_0_intfile_m&#45;&gt;imsichart_1_0_hart -->
<g id="edge18" class="edge">
<title>imsic_1_0_intfile_m&#45;&gt;imsichart_1_0_hart</title>
<path fill="none" stroke="black" d="M321.66,-87.25C321.66,-87.25 354.81,-87.25 354.81,-87.25"/>
<polygon fill="black" stroke="black" points="354.81,-90.75 364.81,-87.25 354.81,-83.75 354.81,-90.75"/>
</g>
<!-- imsic_1_0_intfile_s&#45;&gt;imsichart_1_0_hart -->
<g id="edge19" class="edge">
<title>imsic_1_0_intfile_s&#45;&gt;imsichart_1_0_hart</title>
<path fill="none" stroke="black" d="M319.36,-172.25C319.36,-172.25 355.04,-172.25 355.04,-172.25"/>
<polygon fill="black" stroke="black" points="355.04,-175.75 365.04,-172.25 355.04,-168.75 355.04,-175.75"/>
</g>
<!-- imsic_1_0_intfile_vs_0&#45;&gt;imsichart_1_0_hart -->
<g id="edge20" class="edge">
<title>imsic_1_0_intfile_vs_0&#45;&gt;imsichart_1_0_hart</title>
<path fill="none" stroke="black" d="M331.23,-226.25C331.23,-226.25 354.9,-226.25 354.9,-226.25"/>
<polygon fill="black" stroke="black" points="354.9,-229.75 364.9,-226.25 354.9,-222.75 354.9,-229.75"/>
</g>
<!-- imsic_1_0_intfile_vs_1&#45;&gt;imsichart_1_0_hart -->
<g id="edge21" class="edge">
<title>imsic_1_0_intfile_vs_1&#45;&gt;imsichart_1_0_hart</title>
<path fill="none" stroke="black" d="M331.23,-280.25C331.23,-280.25 354.9,-280.25 354.9,-280.25"/>
<polygon fill="black" stroke="black" points="354.9,-283.75 364.9,-280.25 354.9,-276.75 354.9,-283.75"/>
</g>
<!-- imsichart_1_1_hart -->
<g id="node19" class="node">
<title>imsichart_1_1_hart</title>
<polygon fill="none" stroke="black" points="422.25,-712.25 366.75,-712.25 366.75,-424.25 422.25,-424.25 422.25,-712.25"/>
<text text-anchor="middle" x="394.5" y="-563.58" font-family="Times,serif" font-size="14.00">Hart 11</text>
</g>
<!-- imsic_1_1_intfile_m&#45;&gt;imsichart_1_1_hart -->
<g id="edge26" class="edge">
<title>imsic_1_1_intfile_m&#45;&gt;imsichart_1_1_hart</title>
<path fill="none" stroke="black" d="M321.66,-447.25C321.66,-447.25 354.81,-447.25 354.81,-447.25"/>
<polygon fill="black" stroke="black" points="354.81,-450.75 364.81,-447.25 354.81,-443.75 354.81,-450.75"/>
</g>
<!-- imsic_1_1_intfile_s&#45;&gt;imsichart_1_1_hart -->
<g id="edge27" class="edge">
<title>imsic_1_1_intfile_s&#45;&gt;imsichart_1_1_hart</title>
<path fill="none" stroke="black" d="M319.36,-532.25C319.36,-532.25 355.04,-532.25 355.04,-532.25"/>
<polygon fill="black" stroke="black" points="355.04,-535.75 365.04,-532.25 355.04,-528.75 355.04,-535.75"/>
</g>
<!-- imsic_1_1_intfile_vs_0&#45;&gt;imsichart_1_1_hart -->
<g id="edge28" class="edge">
<title>imsic_1_1_intfile_vs_0&#45;&gt;imsichart_1_1_hart</title>
<path fill="none" stroke="black" d="M331.23,-586.25C331.23,-586.25 354.9,-586.25 354.9,-586.25"/>
<polygon fill="black" stroke="black" points="354.9,-589.75 364.9,-586.25 354.9,-582.75 354.9,-589.75"/>
</g>
<!-- imsic_1_1_intfile_vs_1&#45;&gt;imsichart_1_1_hart -->
<g id="edge29" class="edge">
<title>imsic_1_1_intfile_vs_1&#45;&gt;imsichart_1_1_hart</title>
<path fill="none" stroke="black" d="M331.23,-640.25C331.23,-640.25 354.9,-640.25 354.9,-640.25"/>
<polygon fill="black" stroke="black" points="354.9,-643.75 364.9,-640.25 354.9,-636.75 354.9,-643.75"/>
</g>
</g>
</svg>
