<?xml version="1.0" encoding="UTF-8" standalone="no"?>
<!DOCTYPE svg PUBLIC "-//W3C//DTD SVG 1.1//EN"
 "http://www.w3.org/Graphics/SVG/1.1/DTD/svg11.dtd">
<!-- Generated by graphviz version 10.0.1 (0)
 -->
<!-- Title: G Pages: 1 -->
<svg width="595px" height="1078px"
 viewBox="0.00 0.00 594.50 1078.25" xmlns="http://www.w3.org/2000/svg" xmlns:xlink="http://www.w3.org/1999/xlink">
<g id="graph0" class="graph" transform="scale(1 1) rotate(0) translate(4 1074.25)">
<title>G</title>
<text text-anchor="middle" x="293.25" y="-7.95" font-family="Times,serif" font-size="14.00">IMSIC</text>
<g id="clust1" class="cluster">
<title>imsic</title>
<polygon fill="#f8cecc" stroke="#b85450" points="66,-41.25 66,-1062.25 511,-1062.25 511,-41.25 66,-41.25"/>
<text text-anchor="middle" x="288.5" y="-1044.95" font-family="Times,serif" font-size="14.00">IMSIC</text>
</g>
<g id="clust2" class="cluster">
<title>imsic_mint_file</title>
<polygon fill="#ffe6cc" stroke="#d79b00" points="74,-49.25 74,-288.25 357.25,-288.25 357.25,-49.25 74,-49.25"/>
<text text-anchor="middle" x="215.62" y="-270.95" font-family="Times,serif" font-size="14.00">M IntFile</text>
</g>
<g id="clust3" class="cluster">
<title>imsic_mint_file_mem</title>
<polygon fill="#f5f5f5" stroke="#666666" points="82,-80.25 82,-157.25 219,-157.25 219,-80.25 82,-80.25"/>
<text text-anchor="middle" x="150.5" y="-139.95" font-family="Times,serif" font-size="14.00">Mem[4KB]</text>
</g>
<g id="clust4" class="cluster">
<title>imsic_sint_file</title>
<polygon fill="#ffe6cc" stroke="#d79b00" points="74,-296.25 74,-535.25 357.25,-535.25 357.25,-296.25 74,-296.25"/>
<text text-anchor="middle" x="215.62" y="-517.95" font-family="Times,serif" font-size="14.00">S IntFile</text>
</g>
<g id="clust5" class="cluster">
<title>imsic_sint_file_mem</title>
<polygon fill="#f5f5f5" stroke="#666666" points="82,-327.25 82,-404.25 219,-404.25 219,-327.25 82,-327.25"/>
<text text-anchor="middle" x="150.5" y="-386.95" font-family="Times,serif" font-size="14.00">Mem[4KB]</text>
</g>
<g id="clust6" class="cluster">
<title>imsic_vsint_file_0</title>
<polygon fill="#ffe6cc" stroke="#d79b00" points="74,-543.25 74,-782.25 357.25,-782.25 357.25,-543.25 74,-543.25"/>
<text text-anchor="middle" x="215.62" y="-764.95" font-family="Times,serif" font-size="14.00">VS IntFile 0</text>
</g>
<g id="clust7" class="cluster">
<title>imsic_vsint_file_0_mem</title>
<polygon fill="#f5f5f5" stroke="#666666" points="82,-574.25 82,-651.25 219,-651.25 219,-574.25 82,-574.25"/>
<text text-anchor="middle" x="150.5" y="-633.95" font-family="Times,serif" font-size="14.00">Mem[4KB]</text>
</g>
<g id="clust8" class="cluster">
<title>imsic_vsint_file_1</title>
<polygon fill="#ffe6cc" stroke="#d79b00" points="74,-790.25 74,-1029.25 357.25,-1029.25 357.25,-790.25 74,-790.25"/>
<text text-anchor="middle" x="215.62" y="-1011.95" font-family="Times,serif" font-size="14.00">VS IntFile 1</text>
</g>
<g id="clust9" class="cluster">
<title>imsic_vsint_file_1_mem</title>
<polygon fill="#f5f5f5" stroke="#666666" points="82,-821.25 82,-898.25 219,-898.25 219,-821.25 82,-821.25"/>
<text text-anchor="middle" x="150.5" y="-880.95" font-family="Times,serif" font-size="14.00">Mem[4KB]</text>
</g>
<g id="clust10" class="cluster">
<title>vgein_same_rank</title>
<polygon fill="#f8cecc" stroke="none" points="378.75,-566.25 378.75,-930.25 503,-930.25 503,-566.25 378.75,-566.25"/>
</g>
<!-- bus -->
<g id="node1" class="node">
<title>bus</title>
<polygon fill="none" stroke="black" points="54,-908.25 0,-908.25 0,-44.25 54,-44.25 54,-908.25"/>
<text text-anchor="middle" x="27" y="-471.57" font-family="Times,serif" font-size="14.00">Bus</text>
</g>
<!-- imsic_mint_file_mem_seteipnum -->
<g id="node4" class="node">
<title>imsic_mint_file_mem_seteipnum</title>
<polygon fill="none" stroke="black" points="211,-124.25 90,-124.25 90,-88.25 211,-88.25 211,-124.25"/>
<text text-anchor="middle" x="150.5" y="-101.58" font-family="Times,serif" font-size="14.00">seteipnum[4B]</text>
</g>
<!-- bus&#45;&gt;imsic_mint_file_mem_seteipnum -->
<g id="edge36" class="edge">
<title>bus&#45;&gt;imsic_mint_file_mem_seteipnum</title>
<path fill="none" stroke="black" d="M54.41,-106.25C54.41,-104.25 78.04,-104.25 78.04,-106.25"/>
<path fill="none" stroke="none" d="M54.41,-106.25C54.41,-106.25 78.04,-106.25 78.04,-106.25"/>
<path fill="none" stroke="black" d="M54.41,-106.25C54.41,-108.25 78.04,-108.25 78.04,-106.25"/>
<polygon fill="black" stroke="black" points="78.04,-109.75 88.04,-106.25 78.04,-102.75 78.04,-109.75"/>
</g>
<!-- imsic_sint_file_mem_seteipnum -->
<g id="node12" class="node">
<title>imsic_sint_file_mem_seteipnum</title>
<polygon fill="none" stroke="black" points="211,-371.25 90,-371.25 90,-335.25 211,-335.25 211,-371.25"/>
<text text-anchor="middle" x="150.5" y="-348.57" font-family="Times,serif" font-size="14.00">seteipnum[4B]</text>
</g>
<!-- bus&#45;&gt;imsic_sint_file_mem_seteipnum -->
<g id="edge37" class="edge">
<title>bus&#45;&gt;imsic_sint_file_mem_seteipnum</title>
<path fill="none" stroke="black" d="M54.41,-353.25C54.41,-351.25 78.04,-351.25 78.04,-353.25"/>
<path fill="none" stroke="none" d="M54.41,-353.25C54.41,-353.25 78.04,-353.25 78.04,-353.25"/>
<path fill="none" stroke="black" d="M54.41,-353.25C54.41,-355.25 78.04,-355.25 78.04,-353.25"/>
<polygon fill="black" stroke="black" points="78.04,-356.75 88.04,-353.25 78.04,-349.75 78.04,-356.75"/>
</g>
<!-- imsic_vsint_file_0_mem_seteipnum -->
<g id="node20" class="node">
<title>imsic_vsint_file_0_mem_seteipnum</title>
<polygon fill="none" stroke="black" points="211,-618.25 90,-618.25 90,-582.25 211,-582.25 211,-618.25"/>
<text text-anchor="middle" x="150.5" y="-595.58" font-family="Times,serif" font-size="14.00">seteipnum[4B]</text>
</g>
<!-- bus&#45;&gt;imsic_vsint_file_0_mem_seteipnum -->
<g id="edge38" class="edge">
<title>bus&#45;&gt;imsic_vsint_file_0_mem_seteipnum</title>
<path fill="none" stroke="black" d="M54.41,-600.25C54.41,-598.25 78.04,-598.25 78.04,-600.25"/>
<path fill="none" stroke="none" d="M54.41,-600.25C54.41,-600.25 78.04,-600.25 78.04,-600.25"/>
<path fill="none" stroke="black" d="M54.41,-600.25C54.41,-602.25 78.04,-602.25 78.04,-600.25"/>
<polygon fill="black" stroke="black" points="78.04,-603.75 88.04,-600.25 78.04,-596.75 78.04,-603.75"/>
</g>
<!-- imsic_vsint_file_1_mem_seteipnum -->
<g id="node28" class="node">
<title>imsic_vsint_file_1_mem_seteipnum</title>
<polygon fill="none" stroke="black" points="211,-865.25 90,-865.25 90,-829.25 211,-829.25 211,-865.25"/>
<text text-anchor="middle" x="150.5" y="-842.58" font-family="Times,serif" font-size="14.00">seteipnum[4B]</text>
</g>
<!-- bus&#45;&gt;imsic_vsint_file_1_mem_seteipnum -->
<g id="edge39" class="edge">
<title>bus&#45;&gt;imsic_vsint_file_1_mem_seteipnum</title>
<path fill="none" stroke="black" d="M54.41,-847.25C54.41,-845.25 78.04,-845.25 78.04,-847.25"/>
<path fill="none" stroke="none" d="M54.41,-847.25C54.41,-847.25 78.04,-847.25 78.04,-847.25"/>
<path fill="none" stroke="black" d="M54.41,-847.25C54.41,-849.25 78.04,-849.25 78.04,-847.25"/>
<polygon fill="black" stroke="black" points="78.04,-850.75 88.04,-847.25 78.04,-843.75 78.04,-850.75"/>
</g>
<!-- hart -->
<g id="node2" class="node">
<title>hart</title>
<polygon fill="none" stroke="black" points="586.5,-889.25 532.5,-889.25 532.5,-25.25 586.5,-25.25 586.5,-889.25"/>
<text text-anchor="middle" x="559.5" y="-452.57" font-family="Times,serif" font-size="14.00">Hart</text>
</g>
<!-- imsic_vgein -->
<g id="node3" class="node">
<title>imsic_vgein</title>
<polygon fill="none" stroke="black" points="468.38,-610.25 413.38,-610.25 413.38,-574.25 468.38,-574.25 468.38,-610.25"/>
<text text-anchor="middle" x="440.88" y="-587.58" font-family="Times,serif" font-size="14.00">vgein</text>
</g>
<!-- imsic_vgein&#45;&gt;hart -->
<g id="edge53" class="edge">
<title>imsic_vgein&#45;&gt;hart</title>
<path fill="none" stroke="black" d="M480.2,-592.25C480.2,-592.25 532.27,-592.25 532.27,-592.25"/>
<polygon fill="black" stroke="black" points="480.2,-588.75 470.2,-592.25 480.2,-595.75 480.2,-588.75"/>
</g>
<!-- imsic_vstopei -->
<g id="node11" class="node">
<title>imsic_vstopei</title>
<polygon fill="none" stroke="black" points="489.75,-714.45 392,-714.45 392,-628.05 489.75,-628.05 489.75,-714.45"/>
<text text-anchor="middle" x="440.88" y="-666.58" font-family="Times,serif" font-size="14.00">vstopei[4B]</text>
</g>
<!-- imsic_vgein&#45;&gt;imsic_vstopei -->
<g id="edge33" class="edge">
<title>imsic_vgein&#45;&gt;imsic_vstopei</title>
<path fill="none" stroke="gray" d="M441.5,-610.57C441.5,-610.57 441.5,-616.16 441.5,-616.16"/>
<polygon fill="gray" stroke="gray" points="438,-616.16 441.5,-626.16 445,-616.16 438,-616.16"/>
</g>
<!-- imsic_vsiselect -->
<g id="node19" class="node">
<title>imsic_vsiselect</title>
<polygon fill="none" stroke="black" points="495,-818.45 386.75,-818.45 386.75,-732.05 495,-732.05 495,-818.45"/>
<text text-anchor="middle" x="440.88" y="-770.58" font-family="Times,serif" font-size="14.00">vsiselect[4B]</text>
</g>
<!-- imsic_vgein&#45;&gt;imsic_vsiselect -->
<g id="edge34" class="edge">
<title>imsic_vgein&#45;&gt;imsic_vsiselect</title>
<path fill="none" stroke="gray" d="M413.2,-596.25C395.75,-596.25 376.5,-596.25 376.5,-596.25 376.5,-596.25 376.5,-736.35 376.5,-736.35 376.5,-736.35 377.48,-736.35 377.48,-736.35"/>
<polygon fill="gray" stroke="gray" points="374.76,-739.85 384.76,-736.35 374.76,-732.85 374.76,-739.85"/>
</g>
<!-- imsic_vsireg -->
<g id="node27" class="node">
<title>imsic_vsireg</title>
<polygon fill="none" stroke="black" points="486,-922.45 395.75,-922.45 395.75,-836.05 486,-836.05 486,-922.45"/>
<text text-anchor="middle" x="440.88" y="-874.58" font-family="Times,serif" font-size="14.00">vsireg[4B]</text>
</g>
<!-- imsic_vgein&#45;&gt;imsic_vsireg -->
<g id="edge35" class="edge">
<title>imsic_vgein&#45;&gt;imsic_vsireg</title>
<path fill="none" stroke="gray" d="M413.14,-591.75C392.36,-591.75 367.5,-591.75 367.5,-591.75 367.5,-591.75 367.5,-841.45 367.5,-841.45 367.5,-841.45 384.15,-841.45 384.15,-841.45"/>
<polygon fill="gray" stroke="gray" points="384.15,-844.95 394.15,-841.45 384.15,-837.95 384.15,-844.95"/>
</g>
<!-- imsic_mint_file_pending -->
<g id="node5" class="node">
<title>imsic_mint_file_pending</title>
<polygon fill="none" stroke="black" points="349.25,-93.25 247,-93.25 247,-57.25 349.25,-57.25 349.25,-93.25"/>
<text text-anchor="middle" x="298.12" y="-70.58" font-family="Times,serif" font-size="14.00">pending[1b]</text>
</g>
<!-- imsic_mint_file_mem_seteipnum&#45;&gt;imsic_mint_file_pending -->
<g id="edge1" class="edge">
<title>imsic_mint_file_mem_seteipnum&#45;&gt;imsic_mint_file_pending</title>
<path fill="none" stroke="none" d="M211.29,-102.25C236.73,-102.25 260.5,-102.25 260.5,-102.25 260.5,-102.25 260.5,-101.4 260.5,-101.4"/>
<polygon fill="none" stroke="none" points="264,-105.22 260.5,-95.22 257,-105.22 264,-105.22"/>
</g>
<!-- imsic_mint_file_topei -->
<g id="node6" class="node">
<title>imsic_mint_file_topei</title>
<polygon fill="none" stroke="black" points="325.12,-147.25 271.12,-147.25 271.12,-111.25 325.12,-111.25 325.12,-147.25"/>
<text text-anchor="middle" x="298.12" y="-124.58" font-family="Times,serif" font-size="14.00">topei</text>
</g>
<!-- imsic_mint_file_mem_seteipnum&#45;&gt;imsic_mint_file_topei -->
<g id="edge2" class="edge">
<title>imsic_mint_file_mem_seteipnum&#45;&gt;imsic_mint_file_topei</title>
<path fill="none" stroke="none" d="M211.4,-117.75C211.4,-117.75 259.27,-117.75 259.27,-117.75"/>
<polygon fill="none" stroke="none" points="259.27,-121.25 269.27,-117.75 259.27,-114.25 259.27,-121.25"/>
</g>
<!-- imsic_mint_file_iselect -->
<g id="node7" class="node">
<title>imsic_mint_file_iselect</title>
<polygon fill="none" stroke="black" points="329.38,-201.25 266.88,-201.25 266.88,-165.25 329.38,-165.25 329.38,-201.25"/>
<text text-anchor="middle" x="298.12" y="-178.57" font-family="Times,serif" font-size="14.00">iselect</text>
</g>
<!-- imsic_mint_file_mem_seteipnum&#45;&gt;imsic_mint_file_iselect -->
<g id="edge3" class="edge">
<title>imsic_mint_file_mem_seteipnum&#45;&gt;imsic_mint_file_iselect</title>
<path fill="none" stroke="none" d="M194.5,-124.5C194.5,-147.27 194.5,-183.25 194.5,-183.25 194.5,-183.25 254.96,-183.25 254.96,-183.25"/>
<polygon fill="none" stroke="none" points="254.96,-186.75 264.96,-183.25 254.96,-179.75 254.96,-186.75"/>
</g>
<!-- imsic_mint_file_ireg -->
<g id="node8" class="node">
<title>imsic_mint_file_ireg</title>
<polygon fill="none" stroke="black" points="325.12,-255.25 271.12,-255.25 271.12,-219.25 325.12,-219.25 325.12,-255.25"/>
<text text-anchor="middle" x="298.12" y="-232.57" font-family="Times,serif" font-size="14.00">ireg</text>
</g>
<!-- imsic_mint_file_mem_seteipnum&#45;&gt;imsic_mint_file_ireg -->
<g id="edge4" class="edge">
<title>imsic_mint_file_mem_seteipnum&#45;&gt;imsic_mint_file_ireg</title>
<path fill="none" stroke="none" d="M186.5,-124.74C186.5,-160.85 186.5,-237.25 186.5,-237.25 186.5,-237.25 259.3,-237.25 259.3,-237.25"/>
<polygon fill="none" stroke="none" points="259.3,-240.75 269.3,-237.25 259.3,-233.75 259.3,-240.75"/>
</g>
<!-- imsic_pending_0 -->
<g id="node37" class="node">
<title>imsic_pending_0</title>
<polygon fill="none" stroke="black" points="496.5,-93.25 385.25,-93.25 385.25,-57.25 496.5,-57.25 496.5,-93.25"/>
<text text-anchor="middle" x="440.88" y="-70.58" font-family="Times,serif" font-size="14.00">pending0[1b]</text>
</g>
<!-- imsic_mint_file_pending&#45;&gt;imsic_pending_0 -->
<g id="edge21" class="edge">
<title>imsic_mint_file_pending&#45;&gt;imsic_pending_0</title>
<path fill="none" stroke="black" d="M349.66,-75.25C349.66,-75.25 373.56,-75.25 373.56,-75.25"/>
<polygon fill="black" stroke="black" points="373.56,-78.75 383.56,-75.25 373.56,-71.75 373.56,-78.75"/>
</g>
<!-- imsic_mtopei -->
<g id="node35" class="node">
<title>imsic_mtopei</title>
<polygon fill="none" stroke="black" points="488.62,-151.25 393.12,-151.25 393.12,-115.25 488.62,-115.25 488.62,-151.25"/>
<text text-anchor="middle" x="440.88" y="-128.57" font-family="Times,serif" font-size="14.00">mtopei[4B]</text>
</g>
<!-- imsic_mint_file_topei&#45;&gt;imsic_mtopei -->
<g id="edge17" class="edge">
<title>imsic_mint_file_topei&#45;&gt;imsic_mtopei</title>
<path fill="none" stroke="black" d="M325.31,-131.25C325.31,-131.25 381.18,-131.25 381.18,-131.25"/>
<polygon fill="black" stroke="black" points="381.18,-134.75 391.18,-131.25 381.18,-127.75 381.18,-134.75"/>
</g>
<!-- imsic_miselect -->
<g id="node41" class="node">
<title>imsic_miselect</title>
<polygon fill="none" stroke="black" points="493.88,-209.25 387.88,-209.25 387.88,-173.25 493.88,-173.25 493.88,-209.25"/>
<text text-anchor="middle" x="440.88" y="-186.57" font-family="Times,serif" font-size="14.00">miselect[4B]</text>
</g>
<!-- imsic_mint_file_iselect&#45;&gt;imsic_miselect -->
<g id="edge25" class="edge">
<title>imsic_mint_file_iselect&#45;&gt;imsic_miselect</title>
<path fill="none" stroke="black" d="M341.32,-187.25C341.32,-187.25 387.41,-187.25 387.41,-187.25"/>
<polygon fill="black" stroke="black" points="341.32,-183.75 331.32,-187.25 341.32,-190.75 341.32,-183.75"/>
</g>
<!-- imsic_mireg -->
<g id="node43" class="node">
<title>imsic_mireg</title>
<polygon fill="none" stroke="black" points="484.88,-278.25 396.88,-278.25 396.88,-242.25 484.88,-242.25 484.88,-278.25"/>
<text text-anchor="middle" x="440.88" y="-255.57" font-family="Times,serif" font-size="14.00">mireg[4B]</text>
</g>
<!-- imsic_mint_file_ireg&#45;&gt;imsic_mireg -->
<g id="edge29" class="edge">
<title>imsic_mint_file_ireg&#45;&gt;imsic_mireg</title>
<path fill="none" stroke="black" d="M336.82,-248.75C336.82,-248.75 384.87,-248.75 384.87,-248.75"/>
<polygon fill="black" stroke="black" points="336.82,-245.25 326.82,-248.75 336.82,-252.25 336.82,-245.25"/>
<polygon fill="black" stroke="black" points="384.87,-252.25 394.87,-248.75 384.87,-245.25 384.87,-252.25"/>
</g>
<!-- imsic_mint_file_eips -->
<g id="node9" class="node">
<title>imsic_mint_file_eips</title>
<polygon fill="none" stroke="black" points="177.5,-201.25 123.5,-201.25 123.5,-165.25 177.5,-165.25 177.5,-201.25"/>
<text text-anchor="middle" x="150.5" y="-178.57" font-family="Times,serif" font-size="14.00">eip[]</text>
</g>
<!-- imsic_mint_file_eies -->
<g id="node10" class="node">
<title>imsic_mint_file_eies</title>
<polygon fill="none" stroke="black" points="177.5,-255.25 123.5,-255.25 123.5,-219.25 177.5,-219.25 177.5,-255.25"/>
<text text-anchor="middle" x="150.5" y="-232.57" font-family="Times,serif" font-size="14.00">eie[]</text>
</g>
<!-- imsic_vstopei&#45;&gt;hart -->
<g id="edge46" class="edge">
<title>imsic_vstopei&#45;&gt;hart</title>
<path fill="none" stroke="black" d="M490.15,-671.25C490.15,-671.25 520.71,-671.25 520.71,-671.25"/>
<polygon fill="black" stroke="black" points="520.71,-674.75 530.71,-671.25 520.71,-667.75 520.71,-674.75"/>
</g>
<!-- imsic_sint_file_pending -->
<g id="node13" class="node">
<title>imsic_sint_file_pending</title>
<polygon fill="none" stroke="black" points="349.25,-448.25 247,-448.25 247,-412.25 349.25,-412.25 349.25,-448.25"/>
<text text-anchor="middle" x="298.12" y="-425.57" font-family="Times,serif" font-size="14.00">pending[1b]</text>
</g>
<!-- imsic_sint_file_mem_seteipnum&#45;&gt;imsic_sint_file_pending -->
<g id="edge5" class="edge">
<title>imsic_sint_file_mem_seteipnum&#45;&gt;imsic_sint_file_pending</title>
<path fill="none" stroke="none" d="M211.3,-366.92C234.06,-366.92 254.5,-366.92 254.5,-366.92 254.5,-366.92 254.5,-400.42 254.5,-400.42"/>
<polygon fill="none" stroke="none" points="251,-400.42 254.5,-410.42 258,-400.42 251,-400.42"/>
</g>
<!-- imsic_sint_file_topei -->
<g id="node14" class="node">
<title>imsic_sint_file_topei</title>
<polygon fill="none" stroke="black" points="325.12,-502.25 271.12,-502.25 271.12,-466.25 325.12,-466.25 325.12,-502.25"/>
<text text-anchor="middle" x="298.12" y="-479.57" font-family="Times,serif" font-size="14.00">topei</text>
</g>
<!-- imsic_sint_file_mem_seteipnum&#45;&gt;imsic_sint_file_topei -->
<g id="edge6" class="edge">
<title>imsic_sint_file_mem_seteipnum&#45;&gt;imsic_sint_file_topei</title>
<path fill="none" stroke="none" d="M194.5,-371.74C194.5,-407.85 194.5,-484.25 194.5,-484.25 194.5,-484.25 259.11,-484.25 259.11,-484.25"/>
<polygon fill="none" stroke="none" points="259.11,-487.75 269.11,-484.25 259.11,-480.75 259.11,-487.75"/>
</g>
<!-- imsic_sint_file_iselect -->
<g id="node15" class="node">
<title>imsic_sint_file_iselect</title>
<polygon fill="none" stroke="black" points="329.38,-340.25 266.88,-340.25 266.88,-304.25 329.38,-304.25 329.38,-340.25"/>
<text text-anchor="middle" x="298.12" y="-317.57" font-family="Times,serif" font-size="14.00">iselect</text>
</g>
<!-- imsic_sint_file_mem_seteipnum&#45;&gt;imsic_sint_file_iselect -->
<g id="edge7" class="edge">
<title>imsic_sint_file_mem_seteipnum&#45;&gt;imsic_sint_file_iselect</title>
<path fill="none" stroke="none" d="M203.5,-334.93C203.5,-327.11 203.5,-319.75 203.5,-319.75 203.5,-319.75 255.1,-319.75 255.1,-319.75"/>
<polygon fill="none" stroke="none" points="255.1,-323.25 265.1,-319.75 255.1,-316.25 255.1,-323.25"/>
</g>
<!-- imsic_sint_file_ireg -->
<g id="node16" class="node">
<title>imsic_sint_file_ireg</title>
<polygon fill="none" stroke="black" points="325.12,-394.25 271.12,-394.25 271.12,-358.25 325.12,-358.25 325.12,-394.25"/>
<text text-anchor="middle" x="298.12" y="-371.57" font-family="Times,serif" font-size="14.00">ireg</text>
</g>
<!-- imsic_sint_file_mem_seteipnum&#45;&gt;imsic_sint_file_ireg -->
<g id="edge8" class="edge">
<title>imsic_sint_file_mem_seteipnum&#45;&gt;imsic_sint_file_ireg</title>
<path fill="none" stroke="none" d="M211.4,-362.58C211.4,-362.58 259.27,-362.58 259.27,-362.58"/>
<polygon fill="none" stroke="none" points="259.27,-366.08 269.27,-362.58 259.27,-359.08 259.27,-366.08"/>
</g>
<!-- imsic_pending_1 -->
<g id="node38" class="node">
<title>imsic_pending_1</title>
<polygon fill="none" stroke="black" points="496.5,-448.25 385.25,-448.25 385.25,-412.25 496.5,-412.25 496.5,-448.25"/>
<text text-anchor="middle" x="440.88" y="-425.57" font-family="Times,serif" font-size="14.00">pending1[1b]</text>
</g>
<!-- imsic_sint_file_pending&#45;&gt;imsic_pending_1 -->
<g id="edge22" class="edge">
<title>imsic_sint_file_pending&#45;&gt;imsic_pending_1</title>
<path fill="none" stroke="black" d="M349.66,-430.25C349.66,-430.25 373.56,-430.25 373.56,-430.25"/>
<polygon fill="black" stroke="black" points="373.56,-433.75 383.56,-430.25 373.56,-426.75 373.56,-433.75"/>
</g>
<!-- imsic_stopei -->
<g id="node36" class="node">
<title>imsic_stopei</title>
<polygon fill="none" stroke="black" points="485.62,-502.25 396.12,-502.25 396.12,-466.25 485.62,-466.25 485.62,-502.25"/>
<text text-anchor="middle" x="440.88" y="-479.57" font-family="Times,serif" font-size="14.00">stopei[4B]</text>
</g>
<!-- imsic_sint_file_topei&#45;&gt;imsic_stopei -->
<g id="edge18" class="edge">
<title>imsic_sint_file_topei&#45;&gt;imsic_stopei</title>
<path fill="none" stroke="black" d="M325.31,-484.25C325.31,-484.25 384.31,-484.25 384.31,-484.25"/>
<polygon fill="black" stroke="black" points="384.31,-487.75 394.31,-484.25 384.31,-480.75 384.31,-487.75"/>
</g>
<!-- imsic_siselect -->
<g id="node42" class="node">
<title>imsic_siselect</title>
<polygon fill="none" stroke="black" points="490.88,-340.25 390.88,-340.25 390.88,-304.25 490.88,-304.25 490.88,-340.25"/>
<text text-anchor="middle" x="440.88" y="-317.57" font-family="Times,serif" font-size="14.00">siselect[4B]</text>
</g>
<!-- imsic_sint_file_iselect&#45;&gt;imsic_siselect -->
<g id="edge26" class="edge">
<title>imsic_sint_file_iselect&#45;&gt;imsic_siselect</title>
<path fill="none" stroke="black" d="M341.32,-322.25C341.32,-322.25 390.5,-322.25 390.5,-322.25"/>
<polygon fill="black" stroke="black" points="341.32,-318.75 331.32,-322.25 341.32,-325.75 341.32,-318.75"/>
</g>
<!-- imsic_sireg -->
<g id="node44" class="node">
<title>imsic_sireg</title>
<polygon fill="none" stroke="black" points="481.88,-394.25 399.88,-394.25 399.88,-358.25 481.88,-358.25 481.88,-394.25"/>
<text text-anchor="middle" x="440.88" y="-371.57" font-family="Times,serif" font-size="14.00">sireg[4B]</text>
</g>
<!-- imsic_sint_file_ireg&#45;&gt;imsic_sireg -->
<g id="edge30" class="edge">
<title>imsic_sint_file_ireg&#45;&gt;imsic_sireg</title>
<path fill="none" stroke="black" d="M336.82,-376.25C336.82,-376.25 387.94,-376.25 387.94,-376.25"/>
<polygon fill="black" stroke="black" points="336.82,-372.75 326.82,-376.25 336.82,-379.75 336.82,-372.75"/>
<polygon fill="black" stroke="black" points="387.94,-379.75 397.94,-376.25 387.94,-372.75 387.94,-379.75"/>
</g>
<!-- imsic_sint_file_eips -->
<g id="node17" class="node">
<title>imsic_sint_file_eips</title>
<polygon fill="none" stroke="black" points="177.5,-448.25 123.5,-448.25 123.5,-412.25 177.5,-412.25 177.5,-448.25"/>
<text text-anchor="middle" x="150.5" y="-425.57" font-family="Times,serif" font-size="14.00">eip[]</text>
</g>
<!-- imsic_sint_file_eies -->
<g id="node18" class="node">
<title>imsic_sint_file_eies</title>
<polygon fill="none" stroke="black" points="177.5,-502.25 123.5,-502.25 123.5,-466.25 177.5,-466.25 177.5,-502.25"/>
<text text-anchor="middle" x="150.5" y="-479.57" font-family="Times,serif" font-size="14.00">eie[]</text>
</g>
<!-- imsic_vsiselect&#45;&gt;hart -->
<g id="edge49" class="edge">
<title>imsic_vsiselect&#45;&gt;hart</title>
<path fill="none" stroke="black" d="M506.84,-775.25C506.84,-775.25 532.21,-775.25 532.21,-775.25"/>
<polygon fill="black" stroke="black" points="506.84,-771.75 496.84,-775.25 506.84,-778.75 506.84,-771.75"/>
</g>
<!-- imsic_vsint_file_0_pending -->
<g id="node21" class="node">
<title>imsic_vsint_file_0_pending</title>
<polygon fill="none" stroke="black" points="349.25,-587.25 247,-587.25 247,-551.25 349.25,-551.25 349.25,-587.25"/>
<text text-anchor="middle" x="298.12" y="-564.58" font-family="Times,serif" font-size="14.00">pending[1b]</text>
</g>
<!-- imsic_vsint_file_0_mem_seteipnum&#45;&gt;imsic_vsint_file_0_pending -->
<g id="edge9" class="edge">
<title>imsic_vsint_file_0_mem_seteipnum&#45;&gt;imsic_vsint_file_0_pending</title>
<path fill="none" stroke="none" d="M211.29,-600.75C236.73,-600.75 260.5,-600.75 260.5,-600.75 260.5,-600.75 260.5,-599.09 260.5,-599.09"/>
<polygon fill="none" stroke="none" points="264,-599.09 260.5,-589.09 257,-599.09 264,-599.09"/>
</g>
<!-- imsic_vsint_file_0_topei -->
<g id="node22" class="node">
<title>imsic_vsint_file_0_topei</title>
<polygon fill="none" stroke="black" points="325.12,-641.25 271.12,-641.25 271.12,-605.25 325.12,-605.25 325.12,-641.25"/>
<text text-anchor="middle" x="298.12" y="-618.58" font-family="Times,serif" font-size="14.00">topei</text>
</g>
<!-- imsic_vsint_file_0_mem_seteipnum&#45;&gt;imsic_vsint_file_0_topei -->
<g id="edge10" class="edge">
<title>imsic_vsint_file_0_mem_seteipnum&#45;&gt;imsic_vsint_file_0_topei</title>
<path fill="none" stroke="none" d="M211.4,-611.75C211.4,-611.75 259.27,-611.75 259.27,-611.75"/>
<polygon fill="none" stroke="none" points="259.27,-615.25 269.27,-611.75 259.27,-608.25 259.27,-615.25"/>
</g>
<!-- imsic_vsint_file_0_iselect -->
<g id="node23" class="node">
<title>imsic_vsint_file_0_iselect</title>
<polygon fill="none" stroke="black" points="329.38,-695.25 266.88,-695.25 266.88,-659.25 329.38,-659.25 329.38,-695.25"/>
<text text-anchor="middle" x="298.12" y="-672.58" font-family="Times,serif" font-size="14.00">iselect</text>
</g>
<!-- imsic_vsint_file_0_mem_seteipnum&#45;&gt;imsic_vsint_file_0_iselect -->
<g id="edge11" class="edge">
<title>imsic_vsint_file_0_mem_seteipnum&#45;&gt;imsic_vsint_file_0_iselect</title>
<path fill="none" stroke="none" d="M194.5,-618.5C194.5,-641.27 194.5,-677.25 194.5,-677.25 194.5,-677.25 254.96,-677.25 254.96,-677.25"/>
<polygon fill="none" stroke="none" points="254.96,-680.75 264.96,-677.25 254.96,-673.75 254.96,-680.75"/>
</g>
<!-- imsic_vsint_file_0_ireg -->
<g id="node24" class="node">
<title>imsic_vsint_file_0_ireg</title>
<polygon fill="none" stroke="black" points="325.12,-749.25 271.12,-749.25 271.12,-713.25 325.12,-713.25 325.12,-749.25"/>
<text text-anchor="middle" x="298.12" y="-726.58" font-family="Times,serif" font-size="14.00">ireg</text>
</g>
<!-- imsic_vsint_file_0_mem_seteipnum&#45;&gt;imsic_vsint_file_0_ireg -->
<g id="edge12" class="edge">
<title>imsic_vsint_file_0_mem_seteipnum&#45;&gt;imsic_vsint_file_0_ireg</title>
<path fill="none" stroke="none" d="M186.5,-618.74C186.5,-654.85 186.5,-731.25 186.5,-731.25 186.5,-731.25 259.3,-731.25 259.3,-731.25"/>
<polygon fill="none" stroke="none" points="259.3,-734.75 269.3,-731.25 259.3,-727.75 259.3,-734.75"/>
</g>
<!-- imsic_pending_2 -->
<g id="node39" class="node">
<title>imsic_pending_2</title>
<polygon fill="none" stroke="black" points="496.5,-556.25 385.25,-556.25 385.25,-520.25 496.5,-520.25 496.5,-556.25"/>
<text text-anchor="middle" x="440.88" y="-533.58" font-family="Times,serif" font-size="14.00">pending2[1b]</text>
</g>
<!-- imsic_vsint_file_0_pending&#45;&gt;imsic_pending_2 -->
<g id="edge23" class="edge">
<title>imsic_vsint_file_0_pending&#45;&gt;imsic_pending_2</title>
<path fill="none" stroke="black" d="M349.58,-565.25C376.33,-565.25 403.5,-565.25 403.5,-565.25 403.5,-565.25 403.5,-564.4 403.5,-564.4"/>
<polygon fill="black" stroke="black" points="407,-568.22 403.5,-558.22 400,-568.22 407,-568.22"/>
</g>
<!-- imsic_vsint_file_0_topei&#45;&gt;imsic_vstopei -->
<g id="edge19" class="edge">
<title>imsic_vsint_file_0_topei&#45;&gt;imsic_vstopei</title>
<path fill="none" stroke="black" d="M325.31,-634.65C325.31,-634.65 380.03,-634.65 380.03,-634.65"/>
<polygon fill="black" stroke="black" points="380.03,-638.15 390.03,-634.65 380.03,-631.15 380.03,-638.15"/>
</g>
<!-- imsic_vsint_file_0_iselect&#45;&gt;imsic_vsiselect -->
<g id="edge27" class="edge">
<title>imsic_vsint_file_0_iselect&#45;&gt;imsic_vsiselect</title>
<path fill="none" stroke="black" d="M341.15,-677.25C341.15,-677.25 343.5,-677.25 343.5,-677.25 343.5,-677.25 343.5,-740.65 343.5,-740.65 343.5,-740.65 364.19,-740.65 386.49,-740.65"/>
<polygon fill="black" stroke="black" points="341.15,-673.75 331.15,-677.25 341.15,-680.75 341.15,-673.75"/>
</g>
<!-- imsic_vsint_file_0_ireg&#45;&gt;imsic_vsireg -->
<g id="edge31" class="edge">
<title>imsic_vsint_file_0_ireg&#45;&gt;imsic_vsireg</title>
<path fill="none" stroke="black" d="M337,-744.95C337,-744.95 358.5,-744.95 358.5,-744.95 358.5,-744.95 358.5,-846.85 358.5,-846.85 358.5,-846.85 383.84,-846.85 383.84,-846.85"/>
<polygon fill="black" stroke="black" points="337,-741.45 327,-744.95 337,-748.45 337,-741.45"/>
<polygon fill="black" stroke="black" points="383.84,-850.35 393.84,-846.85 383.84,-843.35 383.84,-850.35"/>
</g>
<!-- imsic_vsint_file_0_eips -->
<g id="node25" class="node">
<title>imsic_vsint_file_0_eips</title>
<polygon fill="none" stroke="black" points="177.5,-695.25 123.5,-695.25 123.5,-659.25 177.5,-659.25 177.5,-695.25"/>
<text text-anchor="middle" x="150.5" y="-672.58" font-family="Times,serif" font-size="14.00">eip[]</text>
</g>
<!-- imsic_vsint_file_0_eies -->
<g id="node26" class="node">
<title>imsic_vsint_file_0_eies</title>
<polygon fill="none" stroke="black" points="177.5,-749.25 123.5,-749.25 123.5,-713.25 177.5,-713.25 177.5,-749.25"/>
<text text-anchor="middle" x="150.5" y="-726.58" font-family="Times,serif" font-size="14.00">eie[]</text>
</g>
<!-- imsic_vsireg&#45;&gt;hart -->
<g id="edge52" class="edge">
<title>imsic_vsireg&#45;&gt;hart</title>
<path fill="none" stroke="black" d="M497.91,-853.78C497.91,-853.78 520.6,-853.78 520.6,-853.78"/>
<polygon fill="black" stroke="black" points="497.91,-850.28 487.91,-853.78 497.91,-857.28 497.91,-850.28"/>
<polygon fill="black" stroke="black" points="520.6,-857.28 530.6,-853.78 520.6,-850.28 520.6,-857.28"/>
</g>
<!-- imsic_vsint_file_1_pending -->
<g id="node29" class="node">
<title>imsic_vsint_file_1_pending</title>
<polygon fill="none" stroke="black" points="349.25,-996.25 247,-996.25 247,-960.25 349.25,-960.25 349.25,-996.25"/>
<text text-anchor="middle" x="298.12" y="-973.58" font-family="Times,serif" font-size="14.00">pending[1b]</text>
</g>
<!-- imsic_vsint_file_1_mem_seteipnum&#45;&gt;imsic_vsint_file_1_pending -->
<g id="edge13" class="edge">
<title>imsic_vsint_file_1_mem_seteipnum&#45;&gt;imsic_vsint_file_1_pending</title>
<path fill="none" stroke="none" d="M211.3,-860.92C234.06,-860.92 254.5,-860.92 254.5,-860.92 254.5,-860.92 254.5,-948.4 254.5,-948.4"/>
<polygon fill="none" stroke="none" points="251,-948.4 254.5,-958.4 258,-948.4 251,-948.4"/>
</g>
<!-- imsic_vsint_file_1_topei -->
<g id="node30" class="node">
<title>imsic_vsint_file_1_topei</title>
<polygon fill="none" stroke="black" points="325.12,-834.25 271.12,-834.25 271.12,-798.25 325.12,-798.25 325.12,-834.25"/>
<text text-anchor="middle" x="298.12" y="-811.58" font-family="Times,serif" font-size="14.00">topei</text>
</g>
<!-- imsic_vsint_file_1_mem_seteipnum&#45;&gt;imsic_vsint_file_1_topei -->
<g id="edge14" class="edge">
<title>imsic_vsint_file_1_mem_seteipnum&#45;&gt;imsic_vsint_file_1_topei</title>
<path fill="none" stroke="none" d="M203.5,-828.93C203.5,-821.11 203.5,-813.75 203.5,-813.75 203.5,-813.75 259.24,-813.75 259.24,-813.75"/>
<polygon fill="none" stroke="none" points="259.24,-817.25 269.24,-813.75 259.24,-810.25 259.24,-817.25"/>
</g>
<!-- imsic_vsint_file_1_iselect -->
<g id="node31" class="node">
<title>imsic_vsint_file_1_iselect</title>
<polygon fill="none" stroke="black" points="329.38,-888.25 266.88,-888.25 266.88,-852.25 329.38,-852.25 329.38,-888.25"/>
<text text-anchor="middle" x="298.12" y="-865.58" font-family="Times,serif" font-size="14.00">iselect</text>
</g>
<!-- imsic_vsint_file_1_mem_seteipnum&#45;&gt;imsic_vsint_file_1_iselect -->
<g id="edge15" class="edge">
<title>imsic_vsint_file_1_mem_seteipnum&#45;&gt;imsic_vsint_file_1_iselect</title>
<path fill="none" stroke="none" d="M211.4,-856.58C211.4,-856.58 254.92,-856.58 254.92,-856.58"/>
<polygon fill="none" stroke="none" points="254.92,-860.08 264.92,-856.58 254.92,-853.08 254.92,-860.08"/>
</g>
<!-- imsic_vsint_file_1_ireg -->
<g id="node32" class="node">
<title>imsic_vsint_file_1_ireg</title>
<polygon fill="none" stroke="black" points="325.12,-942.25 271.12,-942.25 271.12,-906.25 325.12,-906.25 325.12,-942.25"/>
<text text-anchor="middle" x="298.12" y="-919.58" font-family="Times,serif" font-size="14.00">ireg</text>
</g>
<!-- imsic_vsint_file_1_mem_seteipnum&#45;&gt;imsic_vsint_file_1_ireg -->
<g id="edge16" class="edge">
<title>imsic_vsint_file_1_mem_seteipnum&#45;&gt;imsic_vsint_file_1_ireg</title>
<path fill="none" stroke="none" d="M194.5,-865.5C194.5,-888.27 194.5,-924.25 194.5,-924.25 194.5,-924.25 259.11,-924.25 259.11,-924.25"/>
<polygon fill="none" stroke="none" points="259.11,-927.75 269.11,-924.25 259.11,-920.75 259.11,-927.75"/>
</g>
<!-- imsic_pending_3 -->
<g id="node40" class="node">
<title>imsic_pending_3</title>
<polygon fill="none" stroke="black" points="496.5,-986.25 385.25,-986.25 385.25,-950.25 496.5,-950.25 496.5,-986.25"/>
<text text-anchor="middle" x="440.88" y="-963.58" font-family="Times,serif" font-size="14.00">pending3[1b]</text>
</g>
<!-- imsic_vsint_file_1_pending&#45;&gt;imsic_pending_3 -->
<g id="edge24" class="edge">
<title>imsic_vsint_file_1_pending&#45;&gt;imsic_pending_3</title>
<path fill="none" stroke="black" d="M349.66,-973.25C349.66,-973.25 373.56,-973.25 373.56,-973.25"/>
<polygon fill="black" stroke="black" points="373.56,-976.75 383.56,-973.25 373.56,-969.75 373.56,-976.75"/>
</g>
<!-- imsic_vsint_file_1_topei&#45;&gt;imsic_vstopei -->
<g id="edge20" class="edge">
<title>imsic_vsint_file_1_topei&#45;&gt;imsic_vstopei</title>
<path fill="none" stroke="black" d="M325.61,-808.35C331.76,-808.35 336.5,-808.35 336.5,-808.35 336.5,-808.35 336.5,-704.25 336.5,-704.25 336.5,-704.25 380.23,-704.25 380.23,-704.25"/>
<polygon fill="black" stroke="black" points="380.23,-707.75 390.23,-704.25 380.23,-700.75 380.23,-707.75"/>
</g>
<!-- imsic_vsint_file_1_iselect&#45;&gt;imsic_vsiselect -->
<g id="edge28" class="edge">
<title>imsic_vsint_file_1_iselect&#45;&gt;imsic_vsiselect</title>
<path fill="none" stroke="black" d="M341.25,-870.25C341.25,-870.25 391.5,-870.25 391.5,-870.25 391.5,-870.25 391.5,-843.83 391.5,-818.86"/>
<polygon fill="black" stroke="black" points="341.25,-866.75 331.25,-870.25 341.25,-873.75 341.25,-866.75"/>
</g>
<!-- imsic_vsint_file_1_ireg&#45;&gt;imsic_vsireg -->
<g id="edge32" class="edge">
<title>imsic_vsint_file_1_ireg&#45;&gt;imsic_vsireg</title>
<path fill="none" stroke="black" d="M336.82,-914.35C336.82,-914.35 383.74,-914.35 383.74,-914.35"/>
<polygon fill="black" stroke="black" points="336.82,-910.85 326.82,-914.35 336.82,-917.85 336.82,-910.85"/>
<polygon fill="black" stroke="black" points="383.74,-917.85 393.74,-914.35 383.74,-910.85 383.74,-917.85"/>
</g>
<!-- imsic_vsint_file_1_eips -->
<g id="node33" class="node">
<title>imsic_vsint_file_1_eips</title>
<polygon fill="none" stroke="black" points="177.5,-942.25 123.5,-942.25 123.5,-906.25 177.5,-906.25 177.5,-942.25"/>
<text text-anchor="middle" x="150.5" y="-919.58" font-family="Times,serif" font-size="14.00">eip[]</text>
</g>
<!-- imsic_vsint_file_1_eies -->
<g id="node34" class="node">
<title>imsic_vsint_file_1_eies</title>
<polygon fill="none" stroke="black" points="177.5,-996.25 123.5,-996.25 123.5,-960.25 177.5,-960.25 177.5,-996.25"/>
<text text-anchor="middle" x="150.5" y="-973.58" font-family="Times,serif" font-size="14.00">eie[]</text>
</g>
<!-- imsic_mtopei&#45;&gt;hart -->
<g id="edge44" class="edge">
<title>imsic_mtopei&#45;&gt;hart</title>
<path fill="none" stroke="black" d="M489.12,-133.25C489.12,-133.25 520.55,-133.25 520.55,-133.25"/>
<polygon fill="black" stroke="black" points="520.55,-136.75 530.55,-133.25 520.55,-129.75 520.55,-136.75"/>
</g>
<!-- imsic_stopei&#45;&gt;hart -->
<g id="edge45" class="edge">
<title>imsic_stopei&#45;&gt;hart</title>
<path fill="none" stroke="black" d="M486.06,-484.25C486.06,-484.25 520.79,-484.25 520.79,-484.25"/>
<polygon fill="black" stroke="black" points="520.79,-487.75 530.79,-484.25 520.79,-480.75 520.79,-487.75"/>
</g>
<!-- imsic_pending_0&#45;&gt;hart -->
<g id="edge40" class="edge">
<title>imsic_pending_0&#45;&gt;hart</title>
<path fill="none" stroke="black" d="M496.71,-75.25C496.71,-75.25 520.78,-75.25 520.78,-75.25"/>
<polygon fill="black" stroke="black" points="520.78,-78.75 530.78,-75.25 520.78,-71.75 520.78,-78.75"/>
</g>
<!-- imsic_pending_1&#45;&gt;hart -->
<g id="edge41" class="edge">
<title>imsic_pending_1&#45;&gt;hart</title>
<path fill="none" stroke="black" d="M496.71,-430.25C496.71,-430.25 520.78,-430.25 520.78,-430.25"/>
<polygon fill="black" stroke="black" points="520.78,-433.75 530.78,-430.25 520.78,-426.75 520.78,-433.75"/>
</g>
<!-- imsic_pending_2&#45;&gt;hart -->
<g id="edge42" class="edge">
<title>imsic_pending_2&#45;&gt;hart</title>
<path fill="none" stroke="black" d="M496.71,-538.25C496.71,-538.25 520.78,-538.25 520.78,-538.25"/>
<polygon fill="black" stroke="black" points="520.78,-541.75 530.78,-538.25 520.78,-534.75 520.78,-541.75"/>
</g>
<!-- imsic_pending_3&#45;&gt;hart -->
<g id="edge43" class="edge">
<title>imsic_pending_3&#45;&gt;hart</title>
<path fill="none" stroke="black" d="M490.5,-950.06C490.5,-922.03 490.5,-871.52 490.5,-871.52 490.5,-871.52 520.72,-871.52 520.72,-871.52"/>
<polygon fill="black" stroke="black" points="520.72,-875.02 530.72,-871.52 520.72,-868.02 520.72,-875.02"/>
</g>
<!-- imsic_miselect&#45;&gt;hart -->
<g id="edge47" class="edge">
<title>imsic_miselect&#45;&gt;hart</title>
<path fill="none" stroke="black" d="M505.8,-191.25C505.8,-191.25 532.32,-191.25 532.32,-191.25"/>
<polygon fill="black" stroke="black" points="505.8,-187.75 495.8,-191.25 505.8,-194.75 505.8,-187.75"/>
</g>
<!-- imsic_siselect&#45;&gt;hart -->
<g id="edge48" class="edge">
<title>imsic_siselect&#45;&gt;hart</title>
<path fill="none" stroke="black" d="M502.7,-322.25C502.7,-322.25 532.07,-322.25 532.07,-322.25"/>
<polygon fill="black" stroke="black" points="502.7,-318.75 492.7,-322.25 502.7,-325.75 502.7,-318.75"/>
</g>
<!-- imsic_mireg&#45;&gt;hart -->
<g id="edge50" class="edge">
<title>imsic_mireg&#45;&gt;hart</title>
<path fill="none" stroke="black" d="M496.56,-260.25C496.56,-260.25 520.66,-260.25 520.66,-260.25"/>
<polygon fill="black" stroke="black" points="496.56,-256.75 486.56,-260.25 496.56,-263.75 496.56,-256.75"/>
<polygon fill="black" stroke="black" points="520.66,-263.75 530.66,-260.25 520.66,-256.75 520.66,-263.75"/>
</g>
<!-- imsic_sireg&#45;&gt;hart -->
<g id="edge51" class="edge">
<title>imsic_sireg&#45;&gt;hart</title>
<path fill="none" stroke="black" d="M493.88,-376.25C493.88,-376.25 520.83,-376.25 520.83,-376.25"/>
<polygon fill="black" stroke="black" points="493.88,-372.75 483.88,-376.25 493.88,-379.75 493.88,-372.75"/>
<polygon fill="black" stroke="black" points="520.83,-379.75 530.83,-376.25 520.83,-372.75 520.83,-379.75"/>
</g>
</g>
</svg>
